<svg height="78" viewBox="0 0 512 512" width="78" xmlns="http://www.w3.org/2000/svg"><path d="m499.903 255.999c0-35.016 20.631-73.899 8.006-104.348-13.089-31.565-55.656-44.33-79.444-68.118s-36.554-66.355-68.118-79.442c-30.449-12.626-69.332 8.006-104.348 8.006s-73.898-20.632-104.348-8.006c-31.565 13.089-44.33 55.656-68.118 79.444s-66.355 36.554-79.442 68.118c-12.626 30.449 8.006 69.331 8.006 104.347s-20.631 73.899-8.006 104.348c13.089 31.565 55.656 44.33 79.444 68.118s36.554 66.355 68.118 79.444c30.449 12.626 69.332-8.006 104.348-8.006s73.899 20.631 104.348 8.006c31.565-13.089 44.33-55.656 68.118-79.444s66.355-36.554 79.444-68.118c12.623-30.451-8.008-69.333-8.008-104.349z" fill="#eb001b"/><path d="m499.903 255.999c0-35.016 20.631-73.899 8.006-104.348-13.089-31.565-55.656-44.33-79.444-68.118s-36.554-66.355-68.118-79.442c-12.958-5.373-27.446-4.716-42.512-2.197 2.253.581 4.472 1.296 6.644 2.197 31.565 13.089 44.33 55.656 68.118 79.442 23.788 23.788 66.355 36.554 79.444 68.118 12.627 30.449-8.006 69.332-8.006 104.348s20.631 73.899 8.006 104.348c-13.089 31.565-55.656 44.33-79.444 68.118s-36.554 66.355-68.118 79.444c-2.172.901-4.39 1.614-6.644 2.197 15.066 2.519 29.554 3.176 42.512-2.197 31.565-13.089 44.33-55.656 68.118-79.444s66.355-36.554 79.444-68.118c12.625-30.45-8.006-69.332-8.006-104.348z" fill="#cb061d"/><circle cx="255.998" cy="255.997" fill="#f8f8f9" r="186.515"/><path d="m255.999 69.484c-7.28 0-14.458.432-21.521 1.242 92.87 10.672 164.994 89.543 164.994 185.272s-72.124 174.6-164.994 185.272c7.063.812 14.241 1.244 21.521 1.244 103.009 0 186.515-83.505 186.515-186.515s-83.506-186.515-186.515-186.515z" fill="#ededed"/><g fill="#eb001b"><path d="m169.915 352.843c-2.753 0-5.508-1.05-7.61-3.152-4.202-4.202-4.202-11.016 0-15.217l172.167-172.167c4.204-4.202 11.016-4.202 15.218 0s4.202 11.016 0 15.217l-172.166 172.167c-2.101 2.102-4.855 3.152-7.609 3.152z"/><path d="m198.61 238.065c-21.755 0-39.455-17.699-39.455-39.455s17.7-39.455 39.455-39.455 39.455 17.699 39.455 39.455-17.7 39.455-39.455 39.455zm0-57.389c-9.89 0-17.934 8.045-17.934 17.934s8.045 17.934 17.934 17.934 17.934-8.045 17.934-17.934-8.044-17.934-17.934-17.934z"/><path d="m313.388 352.843c-21.755 0-39.455-17.699-39.455-39.455s17.7-39.455 39.455-39.455 39.455 17.699 39.455 39.455-17.7 39.455-39.455 39.455zm0-57.389c-9.89 0-17.934 8.045-17.934 17.934s8.044 17.934 17.934 17.934 17.934-8.045 17.934-17.934c0-9.888-8.044-17.934-17.934-17.934z"/></g></svg>