<svg fill="none" height="30" viewBox="0 0 30 30" width="30" xmlns="http://www.w3.org/2000/svg"><path d="m16.525 21.875c-.2979 0-.5861-.1064-.8125-.3-.2501-.2172-.4038-.5249-.4273-.8554-.0234-.3305.0853-.6567.3023-.9071l9.7125-11.25c.1067-.12475.2369-.22727.3833-.3017.1463-.07443.3058-.11931.4695-.13207.1637-.01277.3282.00682.4843.05766.1561.05083.3007.13191.4254.23861.1248.1067.2273.23693.3017.38325s.1193.30586.1321.46952c.0128.16367-.0068.32824-.0577.48433-.0508.1561-.1319.3006-.2386.4254l-9.725 11.25c-.1173.1372-.263.2474-.427.3229s-.3424.1146-.523.1146z" fill="#2ca9bc"/><path d="m8.74999 21.875c-.17959.0016-.3574-.0356-.52134-.1089-.16393-.0733-.31014-.1811-.42866-.3161l-5-5.775c-.21715-.2519-.32531-.5798-.3007-.9115.02462-.3317.17999-.6401.43195-.8572.25195-.2172.57985-.3253.91155-.3007.33171.0246.64005.18.8572.4319l4.05 4.7125 8.75001-10.14997c.1013-.14059.2306-.25859.3799-.34651s.3153-.14384.4873-.16422c.1721-.02037.3465-.00476.5122.04586.1657.05061.3191.13513.4504.24817s.2377.25215.3124.40849c.0746.15634.116.3265.1214.49967.0055.17318-.0252.3456-.0899.5063-.0648.16071-.1622.30621-.2862.42721l-9.71251 11.25c-.11798.1272-.26115.2285-.42041.2974-.15925.0688-.33109.1038-.50459.1026z" fill="#000"/></svg>