<svg fill="none" height="38" viewBox="0 0 38 38" width="38" xmlns="http://www.w3.org/2000/svg"><path d="m20.9317 27.7083c-.3774 0-.7424-.1347-1.0292-.38-.3169-.2752-.5115-.6649-.5412-1.0835s.108-.8319.3829-1.149l12.3025-14.25c.1351-.158.3001-.2879.4854-.3821.1853-.0943.3874-.1512.5947-.1673.2073-.0162.4158.0086.6135.073s.3808.1671.5389.3022c.158.1352.2878.3001.3821.4855.0943.1853.1511.3874.1673.5947s-.0086.4158-.073.6135-.1671.3808-.3023.5388l-12.3183 14.25c-.1487.1738-.3332.3134-.5409.409-.2078.0957-.4337.1452-.6624.1452z" fill="#2ca9bc"/><path d="m11.0833 27.7083c-.2275.002-.4527-.0451-.6604-.138-.2076-.0928-.3928-.2294-.54295-.4003l-6.33333-7.315c-.27506-.3192-.41206-.7345-.38088-1.1547.03117-.4201.22798-.8107.54713-1.0857.31914-.2751.73448-.4121 1.15464-.3809s.81072.228 1.08577.5471l5.13002 5.9692 11.0833-12.8567c.1283-.1781.2922-.3275.4813-.4389s.3993-.1822.6172-.208c.218-.0258.4389-.006.6488.0581s.4042.1711.5705.3143.301.3194.3956.5175c.0946.198.147.4135.1539.6329.0069.2193-.0319.4377-.114.6413-.082.2036-.2054.3878-.3624.5412l-12.3026 14.25c-.1494.1611-.3307.2894-.5325.3766-.2017.0872-.4193.1315-.6391.13z" fill="#000"/></svg>