<svg fill="none" height="7" viewBox="0 0 216 7" width="216" xmlns="http://www.w3.org/2000/svg" xmlns:xlink="http://www.w3.org/1999/xlink"><mask id="a" height="7" maskUnits="userSpaceOnUse" width="216" x="0" y="0"><path d="m0 0h216v6.73247h-216z" fill="#c4c4c4" transform="matrix(1 0 0 -1 0 6.73247)"/></mask><g mask="url(#a)"><path d="m32.4442 8.15636.5279.08875-1.0273.12723.4924.09313c.4938-.00085 1.1336-.1404 1.4818-.06625.0425.07179-.4952.09483-.6324.15203-.1214.05863-.2205.11687-.2961.17404.2689-.00062.5646-.01444.8694-.04067.41-.04283.8122-.06366 1.1621-.06017.7156-.01157 1.407-.00002 2.185-.00257l-.2589.17278 1.0027-.04042c.1062-.01316.2329.00801.3373-.00828.869-.13777 1.2367-.0627 1.6538-.00044.0856.0161.1886.02813.3064.03576 1.1592-.033 2.2045-.22612 3.2484-.32526.1965-.02532.3849-.05781.552-.09517.3631-.07265.767-.13196 1.1748-.17251.4077-.04055.8062-.06104 1.1592-.05961.7805.00161 1.6623-.04644 2.5601-.13949.2669-.03065.5341-.05087.7844-.05937s.4782-.0051.6693.00999l.6069-.09863c.2631.04002.5968.06198.9807.06454.3839.00257.81-.01432 1.2526-.04963.4716-.03831.9506-.06414 1.4399-.10464 1.0108-.07743 1.9945-.12478 2.9206-.14059 1.3791-.04684 2.7266-.08306 4.1179-.14146.8704-.02819 1.7185-.04369 2.5391-.04643.983-.01103 2.0463-.0644 3.1387-.15756-.0518-.08739-.5308-.06157-.8523-.05862-1.037.01453-2.0984.05217-3.1653.08045-.4807.01104-.9481.01522-1.3996.01251-.7547.00363-1.5504.02691-2.3733.06947-1.3.04682-2.5585.06933-3.7626.06729-.0944-.00346-.1809-.00959-.258-.0183-.0161-.00754-.0193-.01705-.0092-.02761.01-.01056.033-.02183.0666-.03272.0336-.01088.0768-.02103.1254-.02946.0486-.00844.101-.01488.1522-.01871.4782-.05923.9919-.12284 1.4428-.13179.0175-.00067.0361-.0022.0544-.00447.0184-.00228.0361-.00525.0519-.00869 1.0096-.12504 1.8397-.10388 2.6261-.12423 1.3058-.05498 2.5644-.08066 3.757-.07666.1803-.00027.3749-.00742.5769-.02118 1.2491-.0558 2.4171-.06204 3.4492-.01844.4248.01104.8198.03584 1.2763.03625.2812.00171.526.01753.7196.04653.1936.02899.3321.07055.4071.12218.1926-.02718.3882-.05141.5844-.07239.1173-.01199.2297-.01518.3146-.0089.0848.00627.1359.02154.1428.04272.0351.05931-.2324.08909-.4645.11449.14.01272.2977.0202.4695.02226.9672.01356 2.0046-.00244 3.0898-.04763.8425-.05409 1.515-.01006 2.4014-.08634.1063-.01316.1937.00616.2916.0108.255.02442.5727.02991.9256.01599.3528-.01393.7302-.04685 1.0993-.09592.4597.13405 1.4526-.01909 2.186-.03285.2257-.06817-.0333-.05618-.0444-.07491s-.0001 0-.0886.01097c-.7322-.09654-1.7352-.11759-2.8685-.06019-.2096-.00024-.4093-.00464-.5972-.01315-.2846-.01205-.6054-.01085-.9485.00356-.3749.01058-.7192.00555-1.0164-.01484-.171.00034-.3156-.00988-.4204-.0297-.1049-.01982-.1664-.0486-.1791-.08367.1141-.02704.2408-.05177.3748-.07323.7001-.08473 1.3982-.1198 1.9571-.09831.9725.03702 2.1299.00089 3.164.01353.6991.00512 1.443-.00947 2.2177-.04348 0 0-.0204-.03434-.0222-.03746.0916-.01486.1879-.02679.2834-.0351 0 0 0 0 .0092.01561-.0424.01499-.1.02909-.166.04067l-.2303.02852c.1565.00742.3027.02951.4658.01601.3437-.02508.6721-.03567.9656-.03114.2935.00454.5459.0241.7421.05752.3478.04284.7803.06232 1.2697.05718.375.00468.7364.01473 1.0825.03011 0 0 .0222.03745.1861.05736-.1552.02455-.3171.0446-.4782.05922-.7008.03654-1.4034.06996-2.0921.09494-.2537.0027-.4921-.00148-.7108-.01247-.6059-.01286-1.2866.00539-2.0025.05368 0 0-.1417.01755-.2126.02633.2009.08233.8935-.00009 1.1737.05566.1705-.00101.4706-.00802.4603.00666-.0234.01958-.0262.03778-.0082.05328s.0563.02793.1122.03638.128.01272.2111.0125.1752-.00492.2696-.01376c.7884-.04784 1.531-.06114 2.1823-.03909.2469-.00043.5237-.01461.7687-.01816.15-.00427.287-.00189.4034.007.5921.0655 1.3888.07028 2.2705.01363.4261-.02036.8243-.02309 1.174-.00803.2488.0027.3542-.04387.5314-.06581l.7521-.04624-.966-.05794c.2065-.13279.3707-.17658.708-.18485.4921-.01249.9713-.01814 1.4349-.0169.3429.00109.626.02969 1.0902-.0211.082-.00829.161-.01097.2236-.0076.5436.0451 1.1983.05545 1.9192.03034.3733.08445 1.0091.00235 1.5973-.0638.1898.0636-.1541.0928-.3593.13161.492-.00397.9876-.0017 1.4955-.01099.1527.00338.3273-.0024.5101-.0169.1826-.01449.3686-.0373.5426-.06663.085-.01896.188-.03322.287-.03984.099-.00661.186-.00507.244.00431.263.02767.685.00219.903.04892.078.01075.188.01225.313.00424.124-.00801.253-.02501.365-.04796-.122-.00716-.231-.01843-.324-.03357-.334-.04918-.211-.13135.212-.25081.651.00657 1.315.0047 1.918.02722.336.02021.747.01389 1.188-.01825.442-.03213.895-.08882 1.309-.16367.149-.02879.32-.04872.478-.05585s.291-.00093.373.01737c.052.02116.067.04795.047.07803l-.426.05265s.017.02809.021.03433l.611.00472c.323.00017.661-.00811.966-.00575.449.01568.962.00694 1.506-.02568.502-.03344.996-.05871 1.476-.0756.465-.01739.802.03803 1.245.04689.334.00667.702-.00046 1.09-.02112.669-.03662 1.284-.03669 1.787-.00019.587-.19666.872-.22863 1.417-.17549l.256.01517.07-.04217.196.00927c.366.00826.732.01652 1.114.01947.531-.01825 1.105-.06735 1.665-.14251.106-.01316.251-.05788.344-.09289.093-.03502.297-.14064.446-.2094-.163-.05019-.343-.09819-.473-.15589-.012-.00986-.011-.02161.004-.03432.016-.0127.045-.02601.085-.03884.041-.01284.091-.02484.148-.03505s.119-.01834.18-.02374c.119-.01163.236-.01939.347-.02295.547-.00614 1.072-.00158 1.567.01364.181.02147.429.02351.705.00579.275-.01771.562-.05417.815-.10359.649.02967 1.403.02091 2.21-.02568.853.02833 1.884-.02896 2.681.03311-.019-.03121.064-.08495.178-.11591.182-.04703.387-.09062.608-.12891l1.686-.07478c.063-.03844.142-.07736.235-.11625.065-.03072.176-.06078.312-.0838.135-.02303.284-.03722.414-.03955.335-.0114.617.01408 1.017-.04886-.616-.0595-1.447-.05159-2.345.0223-.843.05621-1.654.08429-2.403.08322-.247.00043-.572-.00285-.649-.03685-.171-.09608-.618-.0809-1.14-.06317-.41.0194-.785.01722-1.093-.00635-.308-.02358-.541-.06789-.68-.12928-.035-.0593.049-.10992.409-.14443l1.496-.13838c.22.01779.43.03885.627.06309.332.0322.742.04104 1.198.02583.455-.01521.945-.05406 1.43-.11352.248-.03071.496-.06142.676-.04683.158.01676.303.03683.435.06006.027.01556.037.03348.031.05306.096-.0091.191-.02094.284-.0351.738-.16519 1.311-.16233 1.83-.11948.141.01273.248.03298.39.04884.143.01585.193.03644.323.03044 1.032-.05417 1.33.12678 2.2.11951.042.00707.069.01764.076.03073.008.01309-.003.02829-.032.04419-.061.01435-.132.0267-.207.0359-.074.0092-.149.01495-.218.01674-.4.02322-.754.01611-1-.02014-.175-.01481-.36-.02661-.554-.03534l-.871.26204c.844-.02402 1.643-.02386 2.377.00047.16.01367.431-.00987.657-.01435l1.658-.02449c.341-.00203.632.03905 1.107-.05671 0 0 .314-.01544.398-.00237.084.01308.455.0944.677.14737.257-.0151.613-.05586.773-.04219.28.03356.522.07659.723.1283l1.002-.07383c-.001-.06558-.038-.12728-.109-.18416-.079-.05485-.076-.1207.007-.19215.084-.07145.245-.14648.471-.21895l.99-.38387c.161-.02571.333-.04301.493-.04956.159-.00655.298-.00204.398.01294.425.04445.902.0792 1.328.12365.549-.068.408-.17784.807-.27419l1.293-.16014c.197-.14839.398-.29055-.202-.34023-.119-.00868-.039-.06555-.148-.08891.467-.11137.979-.1447 1.452-.2133.186-.04933.342-.10155.46-.15413.129-.07918.392-.16005.73-.22517.339-.06511.726-.10924 1.079-.12285.592-.04169 1.198-.1043 1.792-.18504.202-.02807.411-.04852.61-.05998.2-.01145.387-.01365.548-.00643.574.01271 1.06.05643 1.426.1283.362.06099.85.09038 1.419.08552.975-.12065 1.171-.30246 1.761-.46259l-1.019-.01795c-.037-.06243.031-.14114-.387-.1397-.417.00144-.205-.05829-.07-.11861.048-.03034.141-.06156.264-.08836.122-.02679.267-.04753.409-.05869l.867-.07721c.308-.02938.605-.04193.86-.03626.255.00566.457.02932.585.06838.147.03709.349.06217.595.07372.314.03026.571.07525.764.13328l1.223-.08455c.052.05832.221.09921.476.11576.256.01655.584.00775.928-.02492l.825-.0519c.917-.05662 1.118-.03798 1.387.12644l-1.1.29368c.16.07736.314.14536.468.21335-.274.09675-.639.18827-1.059.26525-.392.08271-.795.16282-1.208.24002-.447.07889-.92.14748-1.476.23641-.097.02877-.238.07973-.418.12883-.18.04772-.368.09449-.563.14013.037.06243.07.11862-.001.19108.342-.02312.696-.06356 1.029-.11768.333-.05411.635-.1202.879-.19229.041-.01279.091-.0248.147-.03522s.117-.01902.178-.02519c.601-.0443.889-.13685 1.183-.25032.198-.058.453-.10952.73-.14739.531-.06581 1.052-.15035 1.56-.22333.155-.02432.317-.04434.478-.05923.531-.04735 1.066-.11355 1.576-.19524.167-.02077.327-.04824.467-.08014.14-.03189.255-.06727.337-.10319-.126-.03935-.195-.08903-.2-.14603-.023-.03745.35-.11381.527-.16916.176-.05534-.17-.02926-.287-.03483-.482-.01071-.571-.03314-.283-.15598.097-.03862.161-.07727.188-.11354.028-.03627.018-.06938-.027-.09729-.069-.11549-.277-.210311-.42-.323269.222-.074411.593-.15388.634-.246004.019-.020436.06-.042091.12-.063393s.136-.04172.225-.059782c.233-.038987.445-.085616.619-.136264.175-.050649.307-.103965.387-.155819.026-.0214415.088-.0441908.176-.063689.087-.0194981.192-.0343017.294-.0414327.121-.00876237.23-.00760687.304.0032264.073.0108333.106.0305216.091.0549834.003.0459559-.013.0938699-.048.1433269.02.034335.041.06867-.04.125531.363-.02075.745-.062337 1.102-.120245.358-.057908.679-.1299181.928-.2082049.275-.0809919.529-.1660371.834-.2607801-.063-.106127-.063-.106126.587-.293757l3.444-.091501.706-.124278c.658-.108331.814-.10091 1.228-.0449l.278.052643c.585-.072392 1.258-.155755 1.623-.020106.119-.088414.196-.118111.169-.131525-.174-.130471-.477-.241181-.897-.327731-.107-.02025-.183-.05112-.307-.06917-.403-.10189-.496-.25933-.261-.44012.116-.08.286-.16192.502-.24313-.317-.1127-.737-.20607-1.248-.27762-.434-.05536-.792-.12948-1.062-.22025-.243-.09153-.607-.16033-1.071-.20246-.235-.0179-.407-.05325-.498-.10249-.027-.13332.035-.27605.185-.42502.029-.04533.109-.0943.235-.14305.126-.04876.295-.09598.493-.13797 0 0 .095-.03189.14-.05096.039-.16143-.104-.30371-.418-.41725-.051-.03221-.157-.05549-.304-.0673-.148-.01182-.333-.01173-.534.00024-.426.01925-.824.02162-1.236.03242-.444.01528-.835.00324-1.132-.03487-.296-.0381-.488-.10086-.555-.18166-.005-.02288-.017-.04479-.039-.06555-.013-.01071-.019-.0222-.02-.03433l.946-.26458-1.071-.10535c-.062-.10612.451-.16974.709-.24854l-.159-.04395c-.205-.02488-.481.0227-.731.05029l-.248.03071-.03-.04994c-.154-.06799-.717.00845-.937-.04141-.219-.04985-.063-.10613.266-.16029.229-.04026.475-.07236.719-.09389s.48-.03192.691-.0304c.125.00534.23.01751.306.03577.444.07777.935.14464 1.469.20008.409.04981.921.07099 1.5.06207.17.00376.375-.00804.579-.03331.205-.02528.395-.06241.537-.10489l.3-.00701s.164-.04378.141-.05095c-.114-.12973.019-.28832.379-.45228l-.313-.01484c-.448.01519-.164-.0836-.231-.13228-.318.0092-.731.05029-.881-.01146l-.226.00448.089-.01097.107.02024.42-.0923c-.199-.01552-.343-.03449-.519-.04284-.098-.00726-.175-.02009-.228-.03772s-.08-.03969-.08-.06486c0-.03873-.052-.07132-.153-.09467-.1-.02334-.245-.03666-.421-.0387-.209-.00084-.329-.04293-.452-.05786l.534-.25378s-.266.03291-.121-.0118l.018.03121.324-.06353c.233-.05568.396-.06918.534-.02928s.106-.01317.172.0021c-.024-.04058-.174-.06892-.302-.09321-.149-.01908-.316-.03313-.5-.04192.331-.17843.347-.18375-.137-.23098-.485-.04724-.317-.11819-.723-.12831-.405-.01012.056-.13084.327-.15439.201-.01548.406-.03958.601-.07066s.375-.0684.528-.10938l-.081-.13734c-.12.01137-.239.02616-.354.04387-.393.07543-.75.14647-1.099.1026l.166-.10435-1.219.0605c.031-.07821.217-.16729.518-.24845-.045-.04459-.073-.09152-.083-.14046-.02-.03434-.141-.01274-.219-.01645-.279-.00574-.508-.02901-.667-.06775-.159-.03875-.243-.09178-.244-.15444-.032-.05307.397-.16317.666-.15955.67-.01058 1.394-.0514 2.134-.12025.451-.00895.515.13059 1.257.03533.014-.06443-.081-.11659-.271-.14861-.191-.03202-.466-.04215-.785-.02887.181-.14308 1.186-.18038 1.23-.32996-.25.01056-.517.03542-.776.07212-.258.0367-.498.08396-.697.13712-.043.0131-.096.02517-.156.03511s-.124.01742-.186.02174c-.061.00433-.119.00536-.168.00301-.049-.00236-.087-.00803-.111-.01648.139-.05408.293-.1166.467-.17506.175-.05847.217-.08378.342-.09601.939-.11627 1.385-.32567 2.198-.4631.212-.02633.239-.11001.054-.10056-.175.00946-.334.00822-.459-.00357-.124-.0118-.21-.03369-.246-.06324-.136-.03445-.306-.06188-.505-.08157.833-.21488 1.826-.40474 2.886-.55178.201-.029.411-.0468.598-.0505.592-.0002 1.22-.0173 1.871-.0508.231-.0092.445-.0083.629.0025.604.0256 1.085-.0305 1.523-.1887l.726-.2507c-.024-.0406-.146-.0858-.24-.1479l.567-.1339 4.328.3084.868-.2986 1.246.0166c.096-.0086.192-.0205.284-.0351.251-.0882.448-.1729.722-.257.273-.0841.761-.0943 1.102-.1934.34-.0992.681-.1012 1.103-.1601.039-.0767-.001-.1458-.12-.2029-.039-.0655-.253-.106-.29-.1684.004-.0631-.076-.1167-.232-.1559s-.383-.0627-.662-.0685c-.779-.1344-1.72-.23-2.792-.2841-.094-.004-.172-.013-.229-.0267-.058-.0137-.092-.0316-.103-.0528.001-.0612-.07-.1141-.209-.1549-.14-.0407-.343-.0682-.596-.0804-.067-.0025-.118-.0102-.146-.0222-.096-.0077-.166-.0224-.203-.0428s-.04-.0457-.009-.0735.096-.0571.188-.0852c.091-.028.207-.0538.335-.0749.186-.034.377-.0665.57-.0974-.011-.0187-.203-.0217-.175-.0386.076-.0539.093-.1043.051-.1474-.042-.043-.142-.0775-.293-.1007l1.034-.4363c.628-.0605 1.244-.163 1.731-.2881 0-.0205-.028-.0377-.082-.0498s-.132-.0188-.226-.0194c-.252-.0089-.491-.0263-.763-.0361-.166-.0074-.304-.0236-.407-.0478-.102-.0241-.166-.0556-.189-.0928l.607-.1623c-.194-.0396-.339-.0585-.467-.0828.072-.051.198-.1038.366-.1542.168-.0505.374-.0972.602-.1366.061-.0082.124-.0141.184-.0175s.116-.0042.166-.0024c.47.0557 1.02-.0426 1.554-.1356.535-.0929.825-.149 1.219-.2213l.755-.0097c.191-.0342.361-.0745.497-.1175.137-.0431.235-.0877.287-.1304-.04-.0687-.398-.0311-.612-.0382-.506-.0427-1.171-.0336-1.886.0259-.177.0219-.358.0042-.531.0021-.371-.0085-.729-.0224-1.07-.0417-.225-.0178-.435-.04-.629-.0662-.051-.0874.764-.1549.301-.1981.16-.0197.219-.0472.301-.0373.525-.0567 1.043-.0848 1.492-.0809.863.0121 1.843-.0277 2.859-.1162 1.098-.0916 2.15-.1301 3.071-.1122.351.001.743-.0178 1.146-.0549.477-.0514.95-.0838 1.389-.0949.145-.0004.307-.0092.473-.0256.165-.0164.329-.04.479-.0688-.013-.0219-.156-.0377-.124-.0484.454-.1635.639-.3337 1.338-.5008.478-.0592 1.027-.1272 1.34-.0487.313.0786.201.1461-.422.3471.135.0029.298-.0065.46-.0265.162-.0201.313-.0495.426-.0832l.538-.1504.485-.1438c-.042-.0718-.076-.128-.111-.1873-.055-.063.006-.1397.175-.2193.101-.0434.19-.0869.265-.13.303-.1723.391-.3352.253-.4703-.263-.1943-.63-.3731-1.096-.5344-.492-.1568-.761-.3546-1.167-.5255-.207-.0778-.458-.1476-.751-.2085-.555-.1356-1.164-.2646-1.722-.4033-.557-.1387-1.187-.2383-1.806-.3526-.922-.1356-1.918-.2528-2.983-.3508-.66-.0859-1.337-.1695-1.947-.2682-.72-.1113-1.566-.1912-2.517-.2377-.84-.0557-1.59-.1381-2.237-.2456-.068-.0117-.121-.0265-.159-.044-.116-.1096-.443-.1869-.929-.22.03-.0321.067-.0647.113-.0978.068-.0394.082-.0762.041-.1057-.042-.0296-.136-.0505-.272-.06-.389-.0271-.712-.0732-.955-.1363-.09-.0158-.145-.0388-.162-.0671s.006-.0609.065-.0952c.053-.0353.057-.0677.012-.0931-.046-.0254-.139-.0427-.267-.0495-.329-.0333-.682-.0602-1.055-.0803-.795-.0445-1.72-.044-2.718.0015-.107.0132-.214-.0071-.338.0083-.706.051-1.361.0588-1.887.0227-.617-.0141-1.262-.0113-1.912-.0178-.94.0044-1.806-.0224-2.576-.0797-.88.0553-1.374-.0409-2.117-.0428-.685-.0098-1.335-.0336-1.943-.0709-.98-.0495-1.956-.0927-2.922-.1507-.906-.0276-1.741-.0804-2.489-.1575-.287-.0348-.806.0195-1.001-.0535-.196-.073-.59-.0644-.908-.0886l-1.005-.0598c-.173-.0142-.363-.0232-.568-.0269-.934-.0049-1.581-.1023-2.449-.1222l-.088.011c-1.54-.1448-3.303-.2243-5.235-.2361-1.129-.0445-2.364-.0424-3.562-.0749-.286-.0651-.961.0151-1.319-.0444-.359-.0594-.944-.0204-1.406-.0302s-.914-.0343-1.408-.0334c-.428-.0003-.791-.0268-1.053-.0773-.599-.0833-1.329-.1323-2.158-.1448-1.097-.0216-2.133-.0708-3.249-.06.016-.0607-.052-.1124-.198-.1497s-.364-.0589-.631-.0625c-1.193-.0232-2.274-.0836-3.482-.1015l-.324-.0001-3.614-.0349c-.973-.0067-1.911-.0179-2.905-.0255-.372.046-.381-.0333-.638-.0181-.072.039-.157.0562-.283.0351l-.028-.0469-4.124-.0621c-1.615-.0454-3.314-.059-5.082-.0407-.419-.0046-.811-.0201-1.168-.0463-.331-.0096-.676-.0138-1.034-.0127-.484.0118-.956.0178-1.415.0179-1.209-.0179-2.477-.0083-3.8.0048s-2.325-.0102-3.503-.0084c-.798.0017-1.592.0095-2.417.028-.394.0086-.88.0554-1.288.0724-.408.0171-.541.0168-.595-.01-.178-.0752-.625-.0266-.981-.0192-.696.0124-.795.0381-.984.2324l.854.0617c.209.02.472.0235.764.0102s.603-.0428.902-.0859c.118-.0184.241-.033.362-.0429.122-.0098.239-.0148.345-.0145.862.0105 1.712.0326 2.54.0506l.121.0118.008.1733c-.11.017-.223.0311-.337.0417l-4.154.1124c-.953.0276-1.943.0899-2.878.1153-.936.0254-1.44.041-2.166.0672-.306.015-.619.0346-.935.0588.019.0167.029.0344.032.0531.016.0281.039.0655-.096.0956-.146.0424-.342.0786-.548.1014-.194.015-.381.0236-.555.0252-.843.0145-1.805.1061-2.682.2551l-.306-.0995c-1.317.0559-2.6533.1108-4.0288.1639-.2753.0145-.5644.0423-.8454.0813-.3011.0373-.5781.1151-.8951.1577-.3132.0307-.6242.0546-.9274.0713.0821.0256.1904.0461.3213.0608.1288.0051.2226.0211.2679.0456s.0397.0563-.016.0907c-.0981.0591-.1412.1146.0721.1217.1971.0135.3381.0427.4064.0841.0684.0414.0611.0933-.0208.1496-.0359.0329-.0612.0652-.0758.0965l-.0886.011c-.2922.1166-.8756.1587-1.2943.2541-.1977.0277-.4022.0436-.5816.0452-.4632.0205-.9142.0295-1.3932.0553-.2287.0119-.468.0336-.7037.0637-.3365.0417-.3719.0461-.5673.1976.3034-.0026.5439.02.6809.0641s.1621.1069.0709.1778c-.2504.155-.5148.3184-1.6473.4285.3693.0055.7248.0163 1.0648.0323.0989.0035.173.0149.2123.0327.0393.0177.042.0411.0076.0668-.0344.0258-.1041.0527-.1999.0773-.0957.0245-.2129.0455-.3359.06-.5978.0877-1.2214.1464-1.8009.1695-.4882.0102-.9289.0045-1.4991.0047l-.6731.0834c.0111.0187-.0877.0444-.0626.0546.171.0961.3597.19.554.2933-.3103.0557-.5791.123-.7757.1942s-.3129.1433-.3357.2081c-.0168.0196-.0124.0374.0128.0522.0252.0149.0706.0263.1331.0336.1771.0126.3139.0365.3997.07.0858.0336.1183.0757.0951.1234l-.5234.1754c-1.5759.1251-3.1236.2145-4.6141.2665l-1.3456.0394c-.1623.0469-.1121.0675.0407.0686.1528.0012.5824-.0118.8824-.0188.2592-.0092.4893-.0031.6681.0176s.3003.0553.3526.1006l-.4518.2c.0222.0375.0536.0905.2987.087.1674.0043.2908.0232.3501.0535.0594.0303.0514.0704-.0229.1137-.0112.0313.0057.0598.05.0843.3624.002.723.0009 1.0518.0104.1532.0032.2825.0148.3792.034.0967.0193.1586.0457.1812.0775.0119.0311-.017.0665-.0843.1034-.0674.0368-.1713.0741-.3033.1088-.5154.043-.9868.0435-1.3109.0015-.1155-.0328-.3011-.0508-.5323-.0515-.2312-.0006-.4972.016-.7628.0478-.3041.0366-.6076.0527-.8559.0454-.2483-.0074-.425-.0376-.4986-.0854-.3122.0186-.5889.0327-.862.0532-.3221.0257-.6266.0333-.8806.0219-.4063-.008-.8441-.0033-1.3035.014-1.3242.0434-2.6502.0837-3.9323.1018-.3392.0051-.6326-.0088-.9681.0026s-.6008-.0194-1.0204.0426c-.0799.0096-.1603.0158-.2349.0181-.0745.0022-.1412.0005-.1947-.0051-.7367-.049-1.6005-.056-2.5407-.0204-1.2876.0087-2.6229.0334-3.9124.039-.3782-.0048-.7356-.0177-1.0685-.0386-.2533-.0126-.5187-.0211-.7946-.0255-.2115-.004-.4138.0077-.3781-.0604s-.2812-.0255-.4639-.0129c-.6276.033-1.269.0777-1.9171.1336-.6386.0607-1.2643.096-1.8397.1038-.4155.0046-.844-.0127-1.3783.0803.0203.0343.0407.0687.157.1045-.4357.0987-.9329.1835-1.4503.2476s-1.0403.1056-1.5253.121l-.6689.1867c-.1647.0219-.3328.0379-.4941.0469-.1614.009-.3125.011-.4444.0056-.1018-.0027-.226.0043-.3496.0196-.1237.0153-.2385.038-.3234.0638-.1271.0329-.2822.0612-.446.0815s-.3291.0316-.4751.0326c-.4595.0203-.9501.0672-1.4214.1358-.1223.0403-.199.0819-.2205.1196-.0215.0378.0131.0702.0994.0931.1392.0404.2174.092.2298.1515s-.0412.1258-.1577.1947c-.0596.0423-.0796.0824-.0586.1178s.0825.0654.1807.0882c.3666.1054.2685.1644-.3313.3392-.0974.0292-.2149.0564-.3449.08s-.2698.0431-.4104.0571c-.3299.0285-.6553.0497-.9702.0632-.1771.022-.3587.0043-.5628.0128-1.0204.0426-1.1698.1114-1.5003.2595l-.2408.1069c-.4467.0866-.9352.1585-1.4304.2106-.4951.052-.9846.0829-1.4331.0905-.1783.0005-.3832.0153-.5834.0421-.6516.0818-1.3115.1384-1.936.166-.3891.0156-.8085.0559-1.2079.116-.3994.0602-.7618.1377-1.0436.2232-.2532.077-.5844.1461-.9475.1978-.4251.0526-.4645.1144-.2271.1621s.635.109.9879.1591c.1228.017.1989.0447.2198.08s-.0142.0767-.1014.1198c-.056.0736-.0657.1435-.0289.2079.0197.0268.0061.0575-.0398.09-.046.0326-.1232.0662-.2264.0987-.1033.0325-.2302.063-.3723.0896-.142.0266-.2959.0485-.4512.0644-.6554.0812-1.293.1601-1.9613.2195-.2801.0279-.5599.0626-.8325.1031-.558.1001-1.1551.1832-1.7564.2443-.2854.0273-.5644.0751-.7767.1331-.6694.156-1.2863.32-1.8395.4891-.1333.0525-.3077.1036-.5123.1503-.2047.0467-.4351.0879-.6768.121-.1948.0241-.3534.0772-.5035.1126-.1092.0819-.1208.1576-.0339.2201s.2695.1097.5308.1372c.2477.0329.4795.0712.6936.1117.2581.0328.5649.0524.9091.0583.4076.0176.7091.0678.865.1442-1.1159.13817-2.1771.3366-3.1551.29022l-.7432.12555c.0296.04994.0555.09364.0795.13422.1768.07386.232.16701.161.27156-.0586.05057-.0533.09659.0153.1334.0685.03681.1979.06311.3751.07623 1.0495.13471 2.2631.22563 3.2473.37848.3085.02869.6697.04172 1.0684.03854.3857.00919.3696.0782-.0743.16333-.2491.04448-.503.08711-.7608.12773-1.1367.00677-1.5998-.19722-2.897-.14042l-.6012.26879c-.1626.00416-.3204.00579-.4724.0049l-2.1751-.10922c-.1811-.00547-.3222-.02415-.407-.05391-.0849-.02977-.1102-.06942-.073-.11446.0147-.05511-.0153-.10566-.0888-.14983-.0475-.03093-.0171-.07202.0844-.11431.2286-.09534-.0648-.10925-.2501-.13321-.0474-.00234-.102-.00209-.1607.00073-.0587.00283-.1203.00817-.1813.01572-.0609.00755-.12.01716-.1738.02827s-.1012.02349-.1395.03644c-.3265.0907-.6121.18637-.933.28643.2278.09575-.0403.25292.3153.33956.0398.0173.0557.03839.0467.06196-.0089.02358-.0424.04914-.0986.07513-.1447.06707-.2137.13247-.1999.18958.0138.05712.1099.10393.2787.13571l.0203.03434c-.4449.11541-.327.21808-.5018.34024l-.428.07981c-1.0648.1922-1.0667.18908-1.9835.182-.1848.07315.05.08428.2261.09262l1.4745.08207c.9641.05482 1.9562.09276 3.0332.1135s2.2776.08981 3.3908.13957c.0563.00386.0993.01148.1256.02222.0262.01074.0348.0243.0251.03953-.0443.01648-.1022.03237-.1695.04651-.0673.01413-.1423.02615-.2194.03516-.3543.04388-.7177.07214-1.0952.10884l-.7038.06371-.2165.08377c-.1409.05096-.2372.11314-.4246.14976-.1545.02731-.3221.04804-.4856.06003-.1634.01199-.3166.0148-.4436.00814-.3521-.0167-.6706-.0409-1.0069-.06292-.3363-.02201-.5216-.04596-.8131-.05676-.5925-.00491-1.165-.01789-1.7151-.03887-.4634-.04964-.892-.10847-1.2832-.17612-.244-.02674-.4721-.05879-.8888-.02395-.1976.03161-.3681.07311-.4812.11717s-.1615.08782-.1366.12353c.0224.02798.0856.05013.1839.06434.0982.01421.2282.02003.3776.01689.4182.00515.8049.02246 1.1523.05161.4836.0528 1.0723.07557 1.7318.06696.2236-.0076.3735.02074.5691.03002s.3614.03231.5795.01535c.6775-.04371 1.0024.02327 1.4084.06679.1375.01929.2226.05048.2461.09014.0235.03965-.0155.08623-.1129.1346-.1874.09634-.4166.19323-.6842.28912-.1376.04714-.314.0919-.5153.13078s-.4219.07082-.6447.0933c-.1333.059-.2045.11702-.207.16881s.0638.09572.1927.12781c.3286.07322.6199.14771 1.3561.10678.3461-.01563.6719-.01862.9643-.00887.6487.01336 1.3969-.01588 2.1741-.08499.2011-.0177.3988-.02978.5872-.03586 1.3437-.04246 2.6239-.06365 3.9079-.0786.6802-.00718 1.3659-.005 2.076-.02593 1.6651-.04542 3.1809-.02207 4.7882-.03686.8418-.00761 1.5952.02297 2.2208.09015.1219.02251.2265.0488.3127.07854-.4146.07804-.8699.13983-1.3225.17945s-.8871.05576-1.2621.04684c-.2061-.02185-.4726-.02584-.7696-.01153-.297.0143-.6129.04634-.9125.09255l.8711.02613c.5776.01223 1.1692.01601 1.7309.03355.8925.03019 1.7196.07852 2.6438.09808.7461.01799 1.4138.06396 1.9821.13647.4105.05289.8794.09039 1.3971.11175.368.01139.368.01139.6032.11962-.1866.07002-.428.07981-.6553.08116-1.363.04406-2.6601.05178-3.8649.02301-.6078-.00255-1.1471-.03223-1.5919-.08762-.1089-.02337-.3875-.01231-.6112-.00472-.7011.01155-1.3711.0082-2.0022-.01001-.8724-.03036-1.8441-.02316-2.8772.02131-.1959.05442.0296.04994.0407.06867.8002.03491 1.5845.07514 2.4006.10474.223.01054.4615.01577.7126.0156.9377-.01836 1.719.03248 2.2346.1454.0259.0437.3651.03855.5149.06689.0738.02453.1229.05341.1459.0858-.2183.08065-.4652.08108-.6553.08116-.5515-.009-1.0821-.02606-1.5892-.0511-.4714-.02383-.9933-.0302-1.5513-.01895-.4119.0108-.764-.0059-1.1796-.00134-.2254.0096-.4587.02501-.6952.04591.2633.05622.6213.09079 1.0487.1013.3241.03357.7293.04369.7811.13108-.1531.06252-.3236.06354-.4605.05704-.285.00024-.5604-.0037-.8245-.0118-.5601-.01777-1.1666-.01801-1.8066-.00072-.3371.00645-.6569.00451-.9541-.00581-.6735-.01374-1.3191-.04435-1.9358-.05843-1.2634-.01441-2.4156-.06603-3.6295-.09326-.2702-.00674-.5124-.03036-.8685.0104-.3561.04075-.3719.04606-.4139.07137-.0997.04223-.1299.08317-.0844.11431.0706.02909.2082.0453.3883.04572 1.0852.0463 2.1144.11131 3.0813.19466.4255.01669.7984.05074 1.1055.10097.2436.03458.5326.05749.8578.06798.4731.02501.9662.04333 1.4775.0549.2379.00621.4401.02474.5949.05448s.2589.0701.3062.1187l-.6268.16139c-.0984.00752-.1961.01402-.2926.01949l-5.2022-.11625-.5152-.0032c-.5647.00963-.7027.03342-1.2383.22037 1.2224.04399 2.1833.17219 2.787.37183-.1451.02147-.2938.0399-.4428.05484-.9769.04722-1.9003.05977-2.7347.03716-.4957-.00227-1.0054.0039-1.5169.00694.1496.09204.7227.06462 1.0962.08536.8925.03247 1.6818.09954 2.3425.19906.2278.0388.5128.06362.8419.0733.3294.00333.6045.02682.8015.06841.1969.0416.3097.10004.3285.17024.0311.063556.0979.12262.1996.176306-.1799.076171-.4656.149118-.8034.205149-.3379.05603-.7046.091291-1.0315.099171-.6978.031363-1.4216.082709-2.1529.152729-.3643.035315-.7215.055586-1.0485.059493-.2883.003005-.616.028511-.9331.072627s-.6063.104419-.8233.171711c-.2929.0831861-.5663.1673044-.8396.251418-.2734.084113-.5906.190409-.9097.293589-.2813.016136-.5553.026509-.8182.030975-.2045-.003783-.4431.007467-.6877.032419s-.485.062568-.6928.108406c.1219.045216.2596.085116.4047.137502-.1992.069176-.3436.139721-.4244.20734-.0809.067615-.0965.130895-.0459.185965.0296.04994-.187.13372-.2618.19994-.0963.05709-.1144.11037-.0519.15285.0625.04249.2027.07219.4022.08521.2474.02405.4488.06025.5958.10713.0486.01217.0734.02884.072.04848-.0014.01965-.0289.04163-.0799.06395-.0511.02233-.1241.04427-.2124.06384-.0883.01956-.1891.03611-.2931.04815-.3186.03411-.635.05622-.9311.06506-.51.01626-.9983.02647-1.4648.03064-.5159.00627-1.0899.04499-1.6636.11223-.5136.06362-.9741.12065-1.2253.24222s-.6527.1177-.9615.2062c.1734.07978.4817.1352.8938.16069.2696.0091.4946.03298.6607.07011s.2695.0867.3036.14551l-.9375.24677c-.7486.11618-1.1629.02676-1.97179.07334l.83349.0911c.0168.009.023.01958.0185.03121-.0809.18425-.2097.22365-1.0617.32583l-.47821.05923-.75688.07028c-.12122.03776-.20504.07714-.24314.1142-.03809.03705-.02911.07049.02608.09696.11089.04452.14461.10142.09805.16544-.07341.04241-.07947.0815-.01713.11051.06233.029.18913.04607.35839.04825.13508.00337.14511.05239.21859.08014.07302.03826.198.06761.36641.08606.16841.01846.37628.02559.60953.0209.68771-.00383 1.33371.01053 1.92661.04283l-.1063.01316c.618-.02835 1.1957-.03179 1.7051-.01015.5105.02724 1.1656.00977 1.7077.02638.4414-.00381.7775.03389.9369.1051.1543.06799.7153.05212 1.1449.03913.2544-.00841.5004-.01197.7352-.01065.3151.01539.7091.00088 1.1163-.0411.1222-.01291.2426-.01974.3495-.01983 1.0352-.01765 2.0686-.03842 3.0898-.04763.2357.00531.5121-.00684.7967-.03502.1197-.01223.2361-.0173.3337-.01452 1.6136.02799 3.4344-.04341 5.0163-.0048.1918.00912.404.01102.6308.00564.5096-.02268.9521-.00808 1.2604.04157.1664.02642.3796.04097.6262.04274.2465.00177.521-.00929.8058-.03247.474-.03069.9122-.03401 1.2681-.00963.694.02253 1.4239.03179 2.1838.02772.2329-.00394.4376.00481.5983.02558.1606.02077.2729.05301.3282.0942-.1866.07003-.3907.07855-.5844.07239-.7511.01596-1.5002.03504-2.2373.04255-.6596.02148-1.2926.02805-1.8896.01961-.2964-.00953-.6662.01219-1.0288.06041-.4444.06108-.9021.09142-1.2806.0849-.2806-.00162-.5768.00364-.8843.0157-.1968.01455-.3985.03954-.5844.07239-.0738.01427-.1542.02627-.2358.03523-.0817.00896-.163.01467-.2387.01679-.0756.00212-.1441.0006-.2009-.00447-.0567-.00508-.1006-.0136-.1288-.02501-.2847-.09541-.9213-.04672-1.4664-.03617-.8169.16148-1.4248.0659-2.1883.15711-.0604.00605-.1199.00971-.1748.01076-.055.00104-.1042-.00055-.1448-.00468-1.4775-.05489-3.1995-.00914-4.7507-.0281-.1711-.00277-.3696.00673-.5731.02742-1.3298.13698-2.6084.17587-3.5857.10906-.119-.00602-.2542-.00628-.3997-.00076-.6682.05444-1.3073.07614-1.8637.0633-.8721.00415-1.7107.00079-2.59677.01337-.61082.01791-1.14668-.00122-1.55389-.05548-.01295-.02185-.28419.00169-.49198.00398-.11949.055-.2231.10469-.34629.15345-.11013.06033-.27511.12138-.48369.17901-.20859.05762-.45589.11048-.72524.155-.46052.05703-.50657.1398-.18433.17025.83057.10074 1.87498.14197 3.05644.12067.98762-.0017 1.99295-.0056 2.99465-.01574.5842-.0087 1.2001-.02802 1.7685-.0314.1917-.00744.3888-.01839.589-.03275.2456-.02081.4841-.03216.7026-.03342.7017.01754 1.4847.00226 2.3118-.04508.303-.01033.5939-.01381.8684-.01039.6495.01285 1.3536.00339 2.0937-.02812.46-.01778.906-.02707 1.3334-.02778.151-.00195.2739.01298.4193.00168 1.2797-.1183 2.1859-.03285 3.3377-.07834.5598-.01269 1.0946-.01272 1.597-.00011.9803-.00061 1.9879-.01358 3.0189-.03886 1.3633-.04152 2.6266-.02711 3.9283-.04426.257-.0036.5051-.00299.7426.00184 1.1551.03191 2.4098.02514 3.7334-.02014.3006-.00654.5705.00146.7929.02349.2225.02204.3926.05763.4998.10456.0453.03221.0159.07404-.0825.11743-.1634.05541-.3479.1097-.5504.16198l-7.3679.17543c-.3094.00916-.6112.01409-.9038.01477-.8605.00153-1.7474.01517-2.6565.04087-.8982.02415-1.7564.01986-2.6266.02713-.2564.00243-.5195.00818-.7883.01722-1.8171.07153-3.5889.11522-5.303.13076-.7211.0022-1.5002.03503-2.2354.04567-.7351.01065-1.7405.01454-2.6126.01869l-2.7001-.00064c-.531.00212-1.0481-.0042-1.56335-.0074-.62524.22821-.84069.2817-1.67501.38169-.28543.03688-.57576.05889-.83694.06345-.82822-.01804-1.86741.05705-2.6528.04711-.47392.00491-.87606-.02045-1.16525-.07346-.25104-.0416-.53811-.07453-.85677-.09826-.87294.19522-.94987.32202-.29322.37136.17791.01147.42296.00792.55143.03222.07372.01479.17442.02325.29408.02472.11966.00146.25497-.00412.39533-.0163.44296-.03194.85815-.03946 1.20389-.02178.32539.02339.72424.02246 1.15811-.00272.31882-.03948.59904.01627.87476.03238s.50198.04505.93262.00176c.07886-.00861.15715-.01379.22886-.01512.07172-.00133.13495.00121.18486.00744.46252.02788 1.01445.02495 1.61098-.00855.91492-.03296 1.77332-.03419 2.54542-.00366.4622.02671.8563.07408 1.1669.14027.0846.02214.2103.03541.365.03855.7769-.01381 1.6204-.06578 2.4763-.15257.3224-.03477.6444-.06228.959-.08193.6468-.04365 1.2724-.06812 1.8582-.07266.8512-.00072 1.7375-.01752 2.651-.05024.5637-.01822 1.1069-.02494 1.6231-.0201.5305.00228 1.097-.01161 1.6866-.04137.5863-.02425 1.103-.01027 1.4877.04022.1267.02721.2288.05953.3043.09634-.8584.11978-1.7463.18066-2.4847.17037-.2805.00793-.5134-.00008-.809.04658l-.0092-.01561c-.0588-.01013-.1475-.01252-.2493-.00671-.1017.0058-.2094.01939-.3024.03818.0352.05931.0685.11549.0925.15607.5626-.00716 1.1089-.00658 1.6361.00175.4444.01197 1.0476-.0929 1.4323-.05343.7502-.04936 1.2279.0188 1.9007-.00087s1.4138-.08464 2.0865-.1043c.5871-.0108 1.1571-.01314 1.707-.00703.1897.00858.4085.00657.6429-.00592.3294-.02348.6358-.02741.8841-.01135.2482.01607.4283.05149.5195.10219-.0859.0475-.2016.10874-.3351.17219.2456.05213.6186.07408 1.0637.06258l.6289.00252c.1666-.00138.294.01272.3558.03936.0618.02665.0533.06381-.0238.1038-1.1925.2013-1.2365.22349-2.1117.09401l-1.1621.06017zm15.7185-.55298-.0885.01097zm144.8223-21.41788-.02-.0343.022.0375.195-.0242.013.0219zm-28.288 15.04935c-.275.03746-.553.07189-.832.1031-.073.00484-.141.00593-.199.00319-.058-.00275-.104-.00925-.134-.01896-.022-.03745.134-.06344.276-.08099.178-.02362.361-.03863.528-.04348.168-.00486.315.00062.425.01588l.16.01366zm-141.8414-9.12916c.1813-.0063.3532-.00733.5115-.00305.7024.03027 1.3749.07431 2.095.10239.9085.07128 1.9526.10031 3.0929.086.4455-.00699.8219.01611 1.0852.06662.1576.0271.3611.04295.5979.04656l3.0147.08229c.1863.01708.3475.04103.4795.07128-.2656.03291-.4428.05484-.549.068-.2205.00371-.41-.00633-.5496-.02909-.1499-.03858-.4033-.05384-.7098-.04276-.3095.00916-.6112.01409-.9038.01478-.5525-.00194-1.1088-.01011-1.6631-.01516-.2157-.1073-.8523-.05862-1.3974-.04806l-.4211-.00481c-1.3765-.05562-2.6914-.13215-3.9383-.22923-.241-.01642-.4486-.04262-.6164-.07778-.0632-.02742-.0835-.06161-.0592-.09988l-.0885.01097zm61.4696-10.26009c.3339-.0073.6817-.0223 1.0381-.0448.2746-.023.5425-.0369.7931-.0413 1.404-.024 2.867-.0796 4.3695-.1659.1964-.013.3852-.0195.5591-.019l1.2298.0219c.3875.0124.3949.0248.1128.1905-.2341.0321-.4709.0614-.7085.0877-.1417.0175-.3719.0461-.4258.0192-.3286-.0732-.9279-.0258-1.432-.0102-1.4592.04-2.9642.0991-4.4375.1475-.3115.0118-.6132.0178-.902.0179-.1792.0025-.3426-.0022-.4835-.0138-.0411-.0012-.0756-.0047-.101-.0102-.0255-.0055-.0414-.0129-.0467-.0218-.0052-.0089.0003-.0189.0162-.0296.0159-.0106.0418-.0215.076-.0321.1206-.0368.2599-.0722.4132-.1048zm10.6897 24.0359 1.4375.01963c.1724.00211.3186.02421.5031.01476.9843-.02996 1.8957-.02161 2.6954.02467.2723.01889.5911.02267.9381.01113 1.063-.03421 2.067-.03562 2.982-.00419.592.00631 1.146.0275 1.654.06325.039.0083.063.01956.071.03303s0 .02882-.025.045c-.006.01023-.024.02123-.051.03224-.027.01102-.063.02179-.106.03158-.043.00978-.092.01834-.143.02509-.051.00676-.103.01154-.152.01403-.642.04839-1.25.06525-1.777.0492-.488-.01919-1.014-.02481-1.569-.01676-.531.00212-.891-.06047-1.5475-.01271-.2776.01572-.5224.01055-.6932-.01467-.3437-.04179-.8233-.04412-1.3537-.00656-.3173.01901-.6206.02716-.8983.02414-.6736-.01374-1.3173-.04123-1.9414-.06779-.1967-.00615-.4074-.007-.6289-.00253l-3.1252.05202c-.751.01595-1.5002.03503-2.2372.04255-.6028.01633-1.1637.01122-1.6631-.01516-.5324-.02772-1.113-.03897-1.7309-.03355-.9596-.01517-1.9137-.02097-2.9582-.01893-.6661-.00126-1.3482.0028-2.0442.0153-.3521.01608-.6511.00298-.8393-.03677-.1145-.03273-.3839-.00607-.6075.00153-1.1929.07321-2.3116.09056-3.278.05083-.1234-.00647-.2589-.00882-.4034-.00699-.9308.00137-1.8952.01024-2.7887.01034-.2352-.00309-.4566-.01156-.6614-.0253.0219-.02243.0845-.04673.1746-.06788.0901-.02114.201-.0375.3095-.04568.8451-.06265 1.661-.09575 2.4135-.0979 1.2527.00798 2.5648-.00996 3.9228-.05363 1.0537-.04403 2.0145-.03476 2.8109.02712.6225.04617 1.4323.0288 2.2903-.04914.3672-.03722.7236-.0521 1.0204-.04261.2858.01244.6136.00943.9644-.00888.7396-.0348 1.4509-.05095 2.1199-.04812.654.01281 1.2641.04782 1.9358.05844.6717.01061 1.6948.00453 2.523.02257s1.6472.02047 2.4569.0073zm-59.5668 1.82576c.0759-.09651.3445-.15659.6334-.18232.9962-.11427 1.9811-.1629 2.7892-.13772.4366.03512 1.0186.0216 1.6316-.0379.7139-.06186 1.381-.07211 1.8841-.02897.1232.00754.2176.02348.2746.0464.0111.01873.0315.05306.0352.0593-.0529.01583-.1177.0305-.1895.04288-.0717.01237-.1486.02212-.2245.0285l-3.2997.11048-.575.02431c-1.0502.06369-2.051.08907-2.9594.07504zm6.4904-1.52757c.515-.15759.5168-.15446.7807-.19049 1.2728-.14965 2.5447-.23042 3.6645-.23273.2488.00046.4601.01567.6157.04436.0801.00389.131.01624.1418.03437.0107.01813-.0196.04055-.0845.06239l-.4095.11103c-.7437.04807-1.4767.08626-2.1947.11434-.8358.03317-1.5766.03445-2.4432.04796zm42.3249-23.63619c.4799-.2169.4818-.2138 1.2851-.2698.5599-.0396 1.1029-.0629 1.6131-.0691.6234-.0068 1.2626-.019 1.8841-.0289.1517-.007.2804-.0012.3609.0161.0805.0172.1072.0448.0747.0773-.0815.0353-.2091.0695-.362.0969-.1528.0275-.322.0466-.48.0543l-.3391.0052c-.4119.0108-.8396.0269-1.2375.0293-.2582-.009-.5572-.0021-.8738.0203-.3166.0223-.6422.0595-.9511.1085zm-39.7625 24.88016c.1282-.03756.2731-.07354.4309-.10697.6112-.09267 1.258-.1453 1.8138-.14758.2627-.00574.503.01475.7706-.01503.4798-.0398.9448-.061 1.3699-.06245 0 0 .1192.00869.1583.01054l.0814.13734c-.2012.03182-.4111.05781-.6199.07678-.7008.03654-1.3895.06152-2.0763.08963-.6868.0281-.9262.04101-1.3754.05308-.2003-.00664-.3857-.01847-.5533-.03534zm-15.1762-17.07407.9171-.28111c.2967-.02443.574-.02885.7895-.01261.2156.01625.3576.05228.4045.10261.0755.02355.0831.05843.0211.09735-.062.03891-.1888.07883-.3537.11136-.1587.03858-.3399.07315-.5323.1016-.1925.02845-.3921.05015-.5864.06377zm7.6358 1.39962c-.5999.04766-1.1736.06715-1.6773.05697-.3174-.02789-.7475-.01898-1.202.0249-.8267.08746-1.6235.11167-2.2225.06752 0 0-.0222-.03745-.1237-.04833s.3011-.03729.3897-.04826c.6495-.02684 1.3027-.04743 1.8674-.05706.3505.00042.7213-.00844 1.106-.02642.5293-.02773 1.0312-.03671 1.4862-.0266 0 0 .1761.00835.3743.05416zm64.0595 14.64157c-.286.05295-.597.09597-.908.12586-.3119.02988-.6163.04584-.8906.04669-.2101.00277-.38-.01121-.483-.03972s-.1331-.06992-.0856-.11769c.2126-.02632.4959-.06142.6554-.08116.5525.00193 1.0238.02731 1.7118.06602zm53.632-4.46131c-.229.04262-.483.0752-.73.09403-.248.01883-.48.02315-.67.01246-.098-.00464-.032-.05307-.048-.08116-.011-.00637-.011-.01429 0-.02293.011-.00865.033-.0177.063-.02621.03-.0085.067-.01615.107-.02214.041-.00599.083-.0101.122-.0119.25-.01836.485-.02383.686-.01591.2.00792.359.02897.463.06128zm3.594-.60923c-.036.02515-.111.05136-.213.07383s-.224.03969-.342.0485c-.209.00119-.4-.00579-.564-.02066-.178-.01147-.05-.08428.191-.12747.102-.01734.211-.03087.318-.0395.107-.00864.21-.01215.299-.01025.09.0019.165.00916.218.02119s.084.0285.089.04812zm-104.4165 5.83593c-.5362.08986-.9488.06725-1.4027.10337-.4539.03611-.5657.03991-.5049-.01788s.3719-.04607.5668-.0702c.2632-.03202.528-.0504.7648-.0531s.4363.01039.576.03781zm111.7165-15.20345c-.284.02016-.562.03441-.83.04253-.035-.00836-.057-.01929-.065-.03216-.008-.01286-.001-.0274.021-.04275 0 0 .182-.04598.288-.05914.391-.04514.411.01948.586.09152zm40.136-8.37162c.192-.0607.282-.1019.435-.131.071-.0101.144-.0175.214-.0215s.135-.0047.191-.0018c.068.0175.083.0442.044.0749 0 0-.196.0544-.27.0569-.213.0129-.419.0204-.614.0225zm-160.9781 24.08881c-.4074.05046-.7971.09872-1.0791.03984.6469-.06337.6469-.06337 1.0791-.03984zm6.5981-.57596c-.4114.10791-.6527.1177-.8502.1053-.042-.00312-.0697-.01008-.0791-.01982s.0001-.02173.0271-.03416c.0271-.01243.07-.02463.1225-.03473.0525-.01011.1117-.01759.1685-.0213.2145-.00311.4191-.00153.6112.00471zm21.1715-.04563c.0093.01561.0204.03434-.0859.0475-.0278.00668-.0605.01243-.0947.01666-.0342.00424-.0687.00681-.1001.00747 0 0-.0111-.01873-.0185-.03122zm14.7021-25.91092-.2366-.0142.1062-.0132.2805-.0079zm83.3064 20.42637c-.089.01097-.177.02194-.19.00009-.019-.00339-.03-.00827-.034-.01424-.003-.00598.001-.01286.014-.0201 0 0 .124-.01535.177-.02194zm-13.792-.17475c-.059.00125-.111-.00021-.155-.0043 0 0-.011-.01873-.011-.01873l.177-.02194zm-120.1973-4.46233c-.0684.01138-.1409.02036-.2125.02632l-.0886.01097s.0951-.03189.1483-.03847c.0531-.00658.096.00152.1528.00118z" fill="#eb001b"/></g></svg>