<svg fill="none" height="40" viewBox="0 0 40 40" width="40" xmlns="http://www.w3.org/2000/svg"><path d="m12.5 2.5c-1.377 0-2.5 1.12305-2.5 2.5v2.5h20v-2.5c0-1.37695-1.123-2.5-2.5-2.5zm-7.5 7.5c-2.77344 0-5 2.2266-5 5v10c0 2.7734 2.22656 5 5 5v2.5c0 2.7246 2.27539 5 5 5h7.5v-5h-7.5v-7.5h7.5v-7.5h22.5v-2.5c0-2.7734-2.2266-5-5-5z" fill="#000"/><path d="m23.75 20c-2.0801 0-3.75 1.6699-3.75 3.75v12.5c0 2.0801 1.6699 3.75 3.75 3.75h12.5c2.0801 0 3.75-1.6699 3.75-3.75v-12.5c0-2.0801-1.6699-3.75-3.75-3.75zm3.75 2.5h5v6.25s0 1.25-1.25 1.25h-2.5c-1.25 0-1.25-1.25-1.25-1.25zm1.25 10h2.5c.6934 0 1.25.5566 1.25 1.25v2.5c0 .6934-.5566 1.25-1.25 1.25h-2.5c-.6934 0-1.25-.5566-1.25-1.25v-2.5c0-.6934.5566-1.25 1.25-1.25z" fill="#eb001b"/></svg>