<svg fill="none" height="40" viewBox="0 0 40 40" width="40" xmlns="http://www.w3.org/2000/svg" xmlns:xlink="http://www.w3.org/1999/xlink"><clipPath id="a"><path d="m0 0h40v40h-40z"/></clipPath><g clip-path="url(#a)"><path d="m26.5393 27.3051h-15.1927v9.7576h15.1927z" fill="#d0e8ff"/><path d="m26.5393 2.09793h-15.1927v9.75767h15.1927z" fill="#d0e8ff"/><path d="m29.5779 19.1738c.4195 0 .7596-.3641.7596-.8132s-.3401-.8131-.7596-.8131c-.4196 0-.7597.364-.7597.8131s.3401.8132.7597.8132z" fill="#1c71da"/><path d="m32.6149 13.4818h-2.2774-2.2789-18.23121-2.2789-2.2774c-1.2574 0-2.28038 1.0907-2.28038 2.4315v15.4575h6.8367v-4.0657h-3.03854v-1.6263h3.03854 18.23119 3.0385v1.6263h-3.0385v4.0657h6.8367v-15.4575c0-1.3408-1.023-2.4315-2.2804-2.4315zm-3.037 7.3182c-1.2567 0-2.2789-1.0942-2.2789-2.4394 0-1.3451 1.0222-2.4394 2.2789-2.4394 1.2566 0 2.2789 1.0943 2.2789 2.4394 0 1.3452-1.0223 2.4394-2.2789 2.4394z" fill="#5cb0ff"/><path d="m36.4146 15.9133c0-2.2374-1.7048-4.0578-3.7997-4.0578h-2.2774v-5.69191h-2.2789v-5.691941h-18.23122v5.691941h-2.2789v5.69191h-2.2774c-2.09491 0-3.79964 1.8205-3.79964 4.0578v17.0837h8.35596v5.692h18.2312v-5.692h8.356zm-7.5964-8.12344v4.06564h-.7596v-4.06564zm-17.4715-5.69194h15.1926v9.75758h-15.1926zm-2.27895 5.69194h.75963v4.06564h-.75963zm17.47155 29.27284h-15.1926v-9.7576h15.1926zm8.356-5.6919h-6.8367v-4.0657h3.0385v-1.6263h-3.0385-18.23122-3.03853v1.6263h3.03853v4.0657h-6.8367v-15.4575c0-1.3408 1.02298-2.4315 2.28038-2.4315h2.27742 2.2789 18.23122 2.2789 2.2774c1.2574 0 2.2804 1.0907 2.2804 2.4315z" fill="#1c71da"/><path d="m29.5779 15.9212c-1.2567 0-2.2789 1.0942-2.2789 2.4394s1.0222 2.4394 2.2789 2.4394c1.2566 0 2.2789-1.0942 2.2789-2.4394s-1.0223-2.4394-2.2789-2.4394z" fill="#1c71da"/><path d="m29.5779 19.1738c.4195 0 .7596-.3641.7596-.8132s-.3401-.8131-.7596-.8131c-.4196 0-.7597.364-.7597.8131s.3401.8132.7597.8132z" fill="#d0e8ff"/><path d="m2.16776 18c-.55463 0-1.1093-.2293-1.532671-.6878-.846785-.9173-.846785-2.4043 0-3.3214l7.664481-8.3032c.84571-.9168 2.21863-.9168 3.06533 0 .8468.91738.8468 2.40439 0 3.32147l-7.66447 8.30313c-.42283.4585-.97805.6878-1.53267.6878z" fill="#ff5d5d"/><path d="m9.83224 18c-.55462 0-1.10984-.2293-1.53267-.6877l-7.664481-8.3033c-.846785-.91736-.846785-2.40405 0-3.32142.845701-.91677 2.219641-.91677 3.065341 0l7.66447 8.30332c.8468.9174.8468 2.404 0 3.3214-.4229.4584-.978.6877-1.53266.6877z" fill="#ff5d5d"/><path d="m18.611 11.0066c-1.466 0-2.6587-1.27673-2.6587-2.84602s1.1927-2.84597 2.6587-2.84597c1.4661 0 2.6587 1.27668 2.6587 2.84597s-1.1926 2.84602-2.6587 2.84602zm0-4.06572c-.6283 0-1.1394.54711-1.1394 1.2197 0 .67258.5111 1.2197 1.1394 1.2197s1.1395-.54712 1.1395-1.2197c0-.67259-.5112-1.2197-1.1395-1.2197z" fill="#00d40b"/><path d="m37.0919 40c-.1944 0-.3888-.0794-.5371-.2382l-2.1487-2.2999c-.1425-.1524-.2226-.3593-.2226-.5749s.0801-.4224.2226-.5749l2.1487-2.2998c.2967-.3177.7774-.3177 1.0741 0l2.1486 2.2998c.2967.3175.2967.8324 0 1.1498l-2.1486 2.2999c-.1482.1588-.3427.2382-.537.2382zm-1.0744-3.113 1.0743 1.15 1.0742-1.15-1.0742-1.15z" fill="#ffc504"/></g></svg>