<svg fill="none" height="40" viewBox="0 0 40 40" width="40" xmlns="http://www.w3.org/2000/svg" xmlns:xlink="http://www.w3.org/1999/xlink"><clipPath id="a"><path d="m0 0h40v40h-40z"/></clipPath><g clip-path="url(#a)"><path d="m39.3334 10.6666h-3.3334v-4.6666c0-.2-.0934-.39336-.2534-.52l-3.08-2.46664v-2.346719c0-.366641-.3-.666641-.6666-.666641h-24c-.36664 0-.66664.3-.66664.666641v2.346639l-3.08 2.46672c-.16.12664-.25336.32-.25336.52v4.6666h-3.333359c-.366641 0-.666641.3-.666641.6667v17.3333c0 .3667.3.6667.666641.6667h.666639v4.6667c0 .3666.3.6666.66664.6666h6v4.6667c0 .3666.3.6666.66664.6666h22.70664c.1334-.0066.26-.06.36-.1333.0334-.0267.0666-.0534.0934-.0867.0066-.0066.0133-.0133.02-.02l7.3266-8.66c.2134-.2533.2134-.6133 0-.8666l-.76-.9h.92c.3666 0 .6666-.3.6666-.6667v-17.3332c.0002-.3668-.2998-.6668-.6664-.6668zm-6.8-1.59996c.0866-.11336.1333-.25336.1333-.4v-3.94664l2 1.6v4.3466h-3.3333zm-23.86676-7.73328h22.66666v7.11336l-2 2.66668-1.6667 2.22h-15.3332l-3.66668-4.88668zm-3.33328 4.98664 2-1.6v3.94664c0 .14664.04664.28664.13336.4l1.2 1.59996h-3.33336zm2.66664 27.0134h-5.33336v-4h5.33336zm22.6666 5.3332h-21.33324v-9.3332h10.66664v5.3333c0 .3667.3.6667.6666.6667h10zm5.72-6.34-4.3866 5.1868v-2.8467c0-.3666-.3-.6666-.6666-.6666h-10v-6.6667h10c.3666 0 .6666-.3.6666-.6666v-2.8466l5.7934 6.8466zm2.28-4.3266h-1.3333c-.0134 0-.0267.0066-.04.0066l-.6267-.74-4.8266-5.7c-.18-.2133-.4734-.2866-.7334-.1933-.2666.1-.44.3466-.44.6266v4h-10c-.3666 0-.6666.3-.6666.6667v1.3334h-18.66664v-16h8.33336l.99998 1.3334.8 1.0666c.1267.1666.3267.2666.5334.2666h16c.2066 0 .4066-.1.5333-.2666l.8-1.0666 1-1.3334h8.3334v16z" fill="#000"/><path d="m37.7934 30.6666-1.4067 1.66-3.0533-3.66h-12v-1.3333h10c.3666 0 .6666-.3.6666-.6667v-2.8466z" fill="#a60916"/><path d="m32 37.5134v-2.8467c0-.3666-.3-.6666-.6666-.6666h-10v-5.3334h12l3.0533 3.66z" fill="#c90006"/><path d="m34.6666 6.32v4.3466h-3.3333l1.2-1.59996c.0866-.11336.1333-.25336.1333-.4v-3.94664z" fill="#7e939e"/><path d="m31.3334 1.33337v7.11328l-2 2.66675v-8.44674h-20.66676v-1.33329z" fill="#7e939e"/><path d="m29.3334 2.66663v8.44667l-1.6668 2.22h-15.3332l-3.66676-4.88667v-5.78z" fill="#afafaf"/><path d="m8.66664 10.6666h-3.33328v-4.3466l2-1.6v3.94664c0 .14664.04664.28664.13336.4z" fill="#7e939e"/><path d="m8 29.3334h-5.33336v4h5.33336z" fill="#7e939e"/><path d="m20 29.3334h-10.66664v1.3333h10.66664z" fill="#e5e5e5"/><path d="m30.6667 35.3334h-1.3333v3.3333h1.3333z" fill="#e5e5e5"/><path d="m29.3334 35.3334v3.3333h-20.00004v-8h10.66664v4c0 .3667.3.6667.6666.6667z" fill="#f9f9f9"/><path d="m38.6666 12v16h-1.3333c-.0134 0-.0267.0066-.04.0066l-.6267-.74v-13.9332h-7.3333l1-1.3334z" fill="#7e939e"/><path d="m10.6666 13.3334h-9.33324v-1.3334h8.33328z" fill="#7e939e"/><path d="m36.6666 13.3334v13.9333l-4.8266-5.7c-.18-.2133-.4734-.2866-.7334-.1933-.2666.1-.44.3466-.44.6266v4h-10c-.3666 0-.6666.3-.6666.6667v1.3333h-18.66664v-14.6666h9.33334l.8 1.0666c.1267.1667.3267.2667.5334.2667h16c.2066 0 .4066-.1.5333-.2667l.8-1.0666z" fill="#afafaf"/></g></svg>