<svg fill="none" height="40" viewBox="0 0 40 40" width="40" xmlns="http://www.w3.org/2000/svg"><path d="m33.4263.796783h-26.85263v38.406417h20.19923l6.6534-6.6534z" fill="#e6e6e6"/><path d="m33.4263 32.5498-6.6534 6.6534v-6.6932z" fill="#ffba57"/><g fill="#603813"><path d="m33.4263 0h-26.85263c-.44 0-.79679.356719-.79679.796797v38.406403c0 .4401.35679.7968.79679.7968h20.19923c.2113 0 .4139-.084.5634-.2334l6.6534-6.6533c.1494-.1494.2333-.3521.2333-.5635v-31.753003c.0001-.440078-.3567-.796797-.7967-.796797zm-26.05575 1.59359h25.25895v30.15461l-5.8518-.0351c-.213.0015-.4161.0822-.5664.2317-.1506.1496-.2351.353-.2351.5651v5.8964h-18.60565zm20.19915 35.68591v-3.9679l3.9443.0236z"/><path d="m9.24305 17.6892c-.44 0-.7968.3567-.7968.7968v18.0877c0 .44.3568.7968.7968.7968s.79675-.3568.79675-.7968v-18.0876c0-.4401-.35675-.7969-.79675-.7969z"/><path d="m9.24305 14.4223c-.44 0-.7968.3568-.7968.7968v.7171c0 .4401.3568.7968.7968.7968s.79675-.3567.79675-.7968v-.7171c0-.44-.35675-.7968-.79675-.7968z"/></g></svg>