<svg fill="none" height="40" viewBox="0 0 40 40" width="40" xmlns="http://www.w3.org/2000/svg"><path d="m0 16.6984c0-5.7061 11.1682-16.6984 11.1682-16.6984s11.1681 10.992 11.1681 16.6984-4.9999 10.332-11.1678 10.332c-6.16788 0-11.1685-4.6259-11.1685-10.332z" fill="#38c6d9"/><path d="m11.1685 0s11.1682 10.992 11.1682 16.6984-5.0003 10.332-11.1682 10.332z" fill="#02b2b2"/><path d="m11.9615 27.0304c0-7.1629 14.0193-20.96103 14.0193-20.96103s14.0192 13.79813 14.0192 20.96103-6.2766 12.9696-14.0192 12.9696-14.0193-5.8067-14.0193-12.9696z" fill="#8ceff4"/><path d="m25.9808 6.06918s14.0192 13.79812 14.0192 20.96102-6.2766 12.9696-14.0192 12.9696z" fill="#71e2ef"/></svg>