<svg fill="none" height="40" viewBox="0 0 40 40" width="40" xmlns="http://www.w3.org/2000/svg" xmlns:xlink="http://www.w3.org/1999/xlink"><clipPath id="a"><path d="m0 0h40v40h-40z"/></clipPath><g clip-path="url(#a)"><path d="m37.1766 7.5536-5.7884-7.31025c-.2577-.3248737-.8063-.3248737-1.0641 0l-5.7775 7.30009c-3.334 3.59176-3.3313 9.37736.0189 12.91076 1.7342 1.7246 4.0122 2.5866 6.2903 2.5866 2.278 0 4.5567-.8626 6.2909-2.5866.0109-.0102.021-.0211.0306-.0319 3.3149-3.7531 3.3122-9.5163-.0007-12.8687zm-6.3208 12.7786c-1.6378 0-3.1808-.6287-4.3459-1.7701-2.3574-2.5221-2.337-6.628.0251-9.1739l.0733-.07799c.2557-.2733.685-.28893.9582-.03392.274.25501.289.68429.034.95831l-.0726.078c-1.8868 2.0339-1.9091 5.3102-.0482 7.3021.8891.8701 2.0956 1.3612 3.3761 1.3612.3743 0 .6782.3031.6782.6782 0 .375-.3039.6781-.6782.6781z" fill="#000"/><path d="m20.328 20.0157-7.9545-8.9501c-.1302-.1465-.3018-.2171-.5141-.2279-.1967.002-.3824.0895-.5093.2394l-7.58353 8.9358c-2.2116 2.2116-3.428957 5.1516-3.428957 8.2787 0 3.1279 1.217357 6.0685 3.428957 8.2787 2.2116 2.2116 5.15156 3.4296 8.27873 3.4296 3.121 0 6.0556-1.2126 8.2651-3.4153 2.4327-2.1764 3.7809-5.0858 3.7972-8.194.0162-3.1555-1.3259-6.1274-3.7796-8.3749zm-8.2827 17.2715c-2.40286 0-4.6619-.9359-6.36012-2.6348-1.69682-1.6962-2.63135-3.9552-2.63135-6.3608 0-2.4048.93453-4.6639 2.63135-6.3608l.078-.078c.26446-.2644.69382-.2644.95899 0 .26516.2652.26516.6945 0 .959l-.078.078c-1.44048 1.4412-2.23395 3.3598-2.23395 5.4018 0 2.0434.79347 3.9614 2.23395 5.4018 1.44251 1.4425 3.36113 2.2374 5.40113 2.2374.3743 0 .6782.3032.6782.6782 0 .3751-.3039.6782-.6782.6782z" fill="#000"/><path d="m16.1678 27c-.5547 0-1.1093-.2293-1.5327-.6878-.8468-.9173-.8468-2.4043 0-3.3214l7.6645-8.3032c.8457-.9168 2.2186-.9168 3.0653 0 .8468.9174.8468 2.4044 0 3.3215l-7.6645 8.3031c-.4228.4585-.978.6878-1.5326.6878z" fill="#eb001b"/><path d="m23.8322 27c-.5546 0-1.1098-.2293-1.5326-.6877l-7.6645-8.3033c-.8468-.9174-.8468-2.4041 0-3.3214.8457-.9168 2.2196-.9168 3.0653 0l7.6645 8.3033c.8468.9174.8468 2.404 0 3.3214-.4229.4584-.978.6877-1.5327.6877z" fill="#ff5d5d"/></g></svg>