<svg fill="none" height="40" viewBox="0 0 40 40" width="40" xmlns="http://www.w3.org/2000/svg" xmlns:xlink="http://www.w3.org/1999/xlink"><clipPath id="a"><path d="m0 0h40v40h-40z"/></clipPath><g clip-path="url(#a)"><path d="m34.1422 5.85781c-3.7776-3.7775-8.8102-5.85781-14.1524-5.85781-5.3421 0-10.35441 2.08031-14.13199 5.85781-3.7775 3.77758-5.85781 8.79999-5.85781 14.14219s2.08031 10.3646 5.85781 14.1422c3.77758 3.7775 8.78989 5.8578 14.13199 5.8578 5.3422 0 10.3748-2.0803 14.1524-5.8578 3.7775-3.7776 5.8578-8.8 5.8578-14.1422s-2.0803-10.36461-5.8578-14.14219z" fill="#003c61"/><path d="m19.9898.00024414c-5.3351.005-10.35894 2.08460586-14.13199 5.85757586-3.7775 3.77758-5.85781 8.79998-5.85781 14.14218s2.08031 10.3646 5.85781 14.1422c3.77305 3.773 8.79689 5.8527 14.13199 5.8577z" fill="#0066a6"/><path d="m31.1292 8.87079c-2.9727-2.97282-6.9353-4.60993-11.1394-4.60993-4.204 0-8.1463 1.63711-11.1191 4.60993-2.97273 2.97271-4.60984 6.92511-4.60984 11.12921s1.63711 8.1565 4.60992 11.1292c2.97262 2.9728 6.91492 4.6099 11.11902 4.6099 4.2042 0 8.1668-1.6371 11.1394-4.6099 2.9728-2.9727 4.6099-6.9251 4.6099-11.1292s-1.6371-8.1565-4.6099-11.12921z" fill="#005a95"/><path d="m19.9898 4.26111c-4.1969.00492-8.1508 1.6414-11.1191 4.60969-2.97273 2.9727-4.60984 6.9252-4.60984 11.1292 0 4.2041 1.63711 8.1565 4.60984 11.1292 2.9683 2.9682 6.9221 4.6047 11.1191 4.6097z" fill="#31aaef"/><path d="m23.9395 20 3.0664-3.0664c1.0878-1.0879 1.0878-2.8517 0-3.9396-1.0879-1.0878-2.8517-1.0878-3.9396 0l-3.0663 3.0665-3.0663-3.0665c-1.0879-1.0878-2.8517-1.0879-3.9396 0-1.0878 1.0879-1.0878 2.8517 0 3.9396l3.0664 3.0664-3.0664 3.0664c-1.0878 1.0879-1.0878 2.8516 0 3.9395.5439.5439 1.2569.816 1.9699.816.7129 0 1.4258-.2721 1.9698-.816l3.0662-3.0664 3.0663 3.0664c.544.544 1.2568.816 1.9699.816.7128 0 1.4259-.2721 1.9698-.816 1.0879-1.0879 1.0879-2.8516 0-3.9395z" fill="#79c6bf"/><path d="m19.9918 16.0523-3.0582-3.0583c-1.0879-1.0879-2.8516-1.088-3.9395 0-1.0879 1.0879-1.0879 2.8516 0 3.9395l3.0664 3.0665-3.0664 3.0664c-1.0878 1.0879-1.0878 2.8516 0 3.9395.5439.5439 1.2569.816 1.9699.816.7129 0 1.4258-.2721 1.9698-.816l3.0582-3.0582v-7.8954z" fill="#e4f3f6"/></g></svg>