<svg fill="none" height="78" viewBox="0 0 78 78" width="78" xmlns="http://www.w3.org/2000/svg" xmlns:xlink="http://www.w3.org/1999/xlink"><clipPath id="a"><path d="m0 0h78v78h-78z"/></clipPath><g clip-path="url(#a)"><path d="m37.2541 45.6831-12.8699 31.0721-3.0752-5.5845 8.5205-30.8803z" fill="#e02e00"/><path d="m22.5254 34.4926-14.66883 35.4169 11.00133-3.1881 2.4511 4.4494 11.846-28.6028z" fill="#ff4719"/><path d="m40.7458 45.6831 12.87 31.0721 3.0752-5.5845-8.5205-30.8803z" fill="#c20035"/><path d="m55.4745 34.4926-10.6294 8.0754 11.8459 28.6028 2.4512-4.4494 11.0013 3.1881z" fill="#ff0f47"/><path d="m39 1.24463-8.2979 23.83457 8.2979 23.8346c13.1634 0 23.8346-10.671 23.8346-23.8346 0-13.1635-10.6712-23.83457-23.8346-23.83457z" fill="#e89330"/><path d="m15.1654 25.0792c0 13.1634 10.6711 23.8346 23.8346 23.8346v-47.66917c-13.1634 0-23.8346 10.67107-23.8346 23.83457z" fill="#ffbe35"/><path d="m39 6.22339v37.71221c10.3973 0 18.856-8.4589 18.856-18.8561 0-10.3971-8.4587-18.85611-18.856-18.85611z" fill="#ffdb8a"/><path d="m38.9999 6.22339c-10.3971 0-18.856 8.45891-18.856 18.85601s8.4589 18.8562 18.856 18.8562c8.5668 0 15.5369-8.4589 15.5369-18.8561 0-10.3971-6.9701-18.85611-15.5369-18.85611z" fill="#ffeab5"/><path d="m38.9999 11.2021 4.2114 8.0806 8.9866 1.5083-6.3836 6.5023 1.3426 9.0126-8.157-4.0619-8.1567 4.0619 1.3426-9.0126-6.3837-6.5023 8.9866-1.5083z" fill="#e89330"/><g fill="#000"><path d="m71.2938 69.4328-10.3263-24.9298c-.2631-.6349-.9912-.9367-1.6263-.6736s-.9368.9913-.6737 1.6262l9.3353 22.5371-8.5151-2.4673c-.5589-.1621-1.1558.0851-1.4366.595l-4.2765 7.7656-10.0168-24.1826c11.5611-2.2294 20.321-12.4224 20.321-24.6243.0004-13.8285-11.25-25.0791-25.0788-25.0791s-25.0793 11.2506-25.0793 25.0792c0 5.6012 1.8461 10.7791 4.9616 14.958l-12.17608 29.3956c-.18312.4421-.09659.95.22257 1.3064.31901.3564.81443.4984 1.2739.3654l10.04581-2.9109 5.0452 9.1619c.2197.3988.6385.6442 1.09.6442.0228 0 .046-.0006.069-.0018.4778-.0265.8981-.3245 1.0812-.7666l9.6481-23.2924c.263-.6351-.0386-1.3631-.6737-1.6262s-1.3632.0385-1.6263.6736l-8.6572 20.9-4.2763-7.7655c-.2807-.5101-.8781-.7573-1.4367-.5951l-8.51496 2.4674 10.68716-25.8012c4.5801 4.899 11.096 7.9668 18.3157 7.9668.7451 0 1.4824-.0348 2.2114-.0986l11.2548 27.1717c.1831.4421.6035.7399 1.0811.7664.0233.0014.0461.002.0691.002.4516 0 .8704-.2454 1.0899-.6443l5.0453-9.1619 10.0458 2.9111c.46.1333.9548-.0089 1.2739-.3654.3195-.3571.4059-.8649.2228-1.307zm-54.8836-44.3536c0-12.456 10.1337-22.58991 22.5898-22.58991 12.456 0 22.5898 10.13391 22.5898 22.58991 0 12.4561-10.1339 22.59-22.5898 22.59-12.4561-.0002-22.5898-10.1339-22.5898-22.59z"/><path d="m53.3817 20.4062c-.1432-.4413-.5203-.7661-.9779-.8429l-8.3754-1.4055-3.9247-7.5309c-.2143-.4115-.6396-.66944-1.1037-.66944-.4639 0-.8894.25804-1.1037.66944l-3.9248 7.5309-8.3753 1.4055c-.4575.0767-.8344.4016-.9779.8429-.1433.4414-.0295.9255.2956 1.2567l5.9496 6.0599-1.2513 8.3998c-.0684.4589.1241.9176.4995 1.1904.3751.2726.8711.3138 1.2865.1073l7.6018-3.7859 7.602 3.7857c.1758.0875.3656.1306.5548.1306.2584 0 .5151-.0803.7317-.2377.3754-.2727.5679-.7315.4995-1.1904l-1.2512-8.3998 5.9497-6.06c.3248-.3311.4387-.8152.2952-1.2566zm-8.4557 6.015c-.2734.2787-.4005.6693-.3429 1.0553l.9907 6.6506-6.0189-2.9974c-.3494-.1741-.7604-.1741-1.1099 0l-6.0189 2.9974.9907-6.6506c.0576-.3862-.0693-.7768-.3429-1.0553l-4.7108-4.7982 6.6312-1.1129c.385-.0646.7174-.306.8978-.6521l3.1079-5.9628 3.1075 5.9629c.1806.3461.5128.5876.8978.6522l6.6313 1.1129z"/><path d="m57.8548 26.3347c-.6816-.0911-1.3072.3888-1.3973 1.0704-1.1546 8.714-8.6596 15.2854-17.4575 15.2854-9.7108 0-17.6112-7.9003-17.6112-17.6112s7.9004-17.61125 17.6112-17.61125c8.7979 0 16.3028 6.57115 17.4574 15.28535.0902.6816.7169 1.162 1.3973 1.0704.6813-.0903 1.1607-.716 1.0702-1.3973-1.3175-9.9468-9.8834-17.44774-19.9249-17.44774-11.0834 0-20.1005 9.01704-20.1005 20.10054 0 11.0834 9.0169 20.1006 20.1005 20.1006 10.0415 0 18.6073-7.5009 19.9252-17.4477.0903-.6815-.3889-1.3071-1.0704-1.3975z"/></g></g></svg>