<svg fill="none" height="38" viewBox="0 0 38 38" width="38" xmlns="http://www.w3.org/2000/svg"><path d="m33.4986 33.25h-4.9986v-4.75h-19v4.75h-4.99863c-2.48262 0-4.50137-2.0188-4.50137-4.5014v-16.3281c0-2.48262 2.01875-4.50137 4.50137-4.50137h28.99353c2.4826 0 4.5014 2.01875 4.5014 4.50137v16.3281c.0037 2.4826-2.015 4.5014-4.4977 4.5014zm-1.8332-3.1654h1.8295c.7385 0 1.336-.5975 1.336-1.336v-16.3281c0-.7385-.6012-1.3359-1.336-1.3359h-28.99353c-.73848 0-1.33594.5974-1.33594 1.3359v16.3281c0 .7385.60117 1.336 1.33594 1.336h1.82949v-1.7553c0-1.6514 1.34336-2.9947 2.99473-2.9947h19.34141c1.6514 0 2.9947 1.3433 2.9947 2.9947v1.7553z" fill="#3688ff"/><path d="m31.157 11.0846h-24.31404c-1.59199 0-2.8834-1.29516-2.8834-2.88344v-2.14863c0-1.592 1.29512-2.8834 2.8834-2.8834h24.31404c1.592 0 2.8834 1.29512 2.8834 2.8834v2.14863c0 1.58828-1.2914 2.88344-2.8834 2.88344zm-24.03201-3.16918h23.75001v-1.58457h-23.75001zm3.56251 9.10668h-3.56251c-.87578 0-1.58457-.7088-1.58457-1.5846s.70879-1.5846 1.58457-1.5846h3.56251c.8758 0 1.5846.7088 1.5846 1.5846s-.7088 1.5846-1.5846 1.5846zm17.7902 19.3933h-18.95544c-1.75898 0-3.19141-1.4324-3.19141-3.1914v-4.7017c0-1.759 1.43243-3.1915 3.19141-3.1915h18.95174c1.759 0 3.1914 1.4325 3.1914 3.1915v4.7017c0 1.7627-1.4287 3.1914-3.1877 3.1914zm-18.95544-7.9154-.02227 4.7277 18.97771.0223c.0149 0 .0223-.0111.0223-.0223v-4.7054z" fill="#384a70"/></svg>