<svg fill="none" height="40" viewBox="0 0 40 40" width="40" xmlns="http://www.w3.org/2000/svg" xmlns:xlink="http://www.w3.org/1999/xlink"><clipPath id="a"><path d="m0 0h40v40h-40z"/></clipPath><g clip-path="url(#a)"><path d="m23.0705 25.099c0 4.425 3.5872 8.0122 8.0122 8.0122 4.4249 0 8.0123-3.5872 8.0123-8.0122 0-5.099-8.0122-18.21027-8.0122-18.21027s-8.0123 13.11127-8.0123 18.21027z" fill="#ff4181"/><path d="m11.9878 25.099c0 4.425 3.5873 8.0122 8.0122 8.0122s8.0122-3.5873 8.0122-8.0122c0-5.099-8.0122-18.21027-8.0122-18.21027s-8.0122 13.11127-8.0122 18.21027z" fill="#ffce47"/><path d="m.905 25.099c0 4.425 3.58727 8.0122 8.01219 8.0122 4.42491 0 8.01221-3.5873 8.01221-8.0122 0-5.099-8.01221-18.21027-8.01221-18.21027s-8.01219 13.11127-8.01219 18.21027z" fill="#4eb9ff"/><g fill="#01121c"><path d="m35.9276 25.099c0-.4999-.4052-.905-.905-.905-.4999 0-.905.4051-.905.905 0 1.6733-1.3615 3.0348-3.0349 3.0348-.4998 0-.905.4052-.905.905 0 .4999.4052.905.905.905 2.6715 0 4.8449-2.1733 4.8449-4.8448z"/><path d="m31.855 6.41677c-.1644-.26907-.457-.43313-.7722-.43313s-.6078.16406-.7722.43313c-.0204.0332-2.0549 3.37015-4.0559 7.28453-.2275.4451-.0511.9902.3939 1.2177.4451.2275.9902.0511 1.2177-.3939 1.2205-2.3876 2.4532-4.5563 3.2187-5.8674 2.5236 4.3118 7.1051 12.8763 7.1051 16.4413 0 3.9189-3.1884 7.1072-7.1073 7.1072-.9598 0-1.8905-.1878-2.7662-.5581-.4605-.1948-.9914.0206-1.1859.4809-.1947.4604.0206.9914.4809 1.186 1.1.4652 2.2679.7011 3.4713.7011 4.917 0 8.9172-4.0002 8.9172-8.9171-.0001-5.2928-7.8125-18.13794-8.1451-18.68223z"/><path d="m24.8448 25.099c0-.4999-.4052-.905-.905-.905-.4999 0-.905.4051-.905.905 0 1.6733-1.3615 3.0348-3.0349 3.0348-.4998 0-.905.4052-.905.905 0 .4999.4052.905.905.905 2.6716 0 4.8449-2.1733 4.8449-4.8448z"/><path d="m20.7722 6.41677c-.1644-.26907-.457-.43313-.7722-.43313-.3153 0-.6078.16406-.7722.43313-.0204.0332-2.0549 3.37015-4.0558 7.28463-.2275.445-.0511.9902.3939 1.2177s.9901.0511 1.2177-.3939c1.2205-2.3876 2.4532-4.55632 3.2185-5.86734 2.5237 4.31164 7.1051 12.87614 7.1051 16.44114 0 3.919-3.1884 7.1073-7.1073 7.1073-1.0047 0-1.9754-.2052-2.8851-.6098-.4566-.2032-.9915.0023-1.1946.4591-.2032.4566.0023.9915.459 1.1947 1.1427.5083 2.3608.7659 3.6206.7659 4.9171 0 8.9172-4.0002 8.9172-8.9172.0002-5.2928-7.8122-18.13794-8.1448-18.68223z"/><path d="m9.68938 6.41677c-.16438-.26907-.45696-.43313-.77219-.43313-.31524 0-.60782.16406-.77219.43313-.33258.54429-8.145 13.38943-8.145 18.68223 0 4.917 4.00023 8.9171 8.91719 8.9171 4.91691 0 8.91731-4.0002 8.91731-8.9171 0-5.2928-7.8125-18.13794-8.14512-18.68223zm-.77219 25.78943c-3.91891 0-7.10727-3.1882-7.10727-7.1072 0-3.5663 4.58414-12.1347 7.10735-16.44504 2.52323 4.30994 7.10723 12.87734 7.10723 16.44504 0 3.919-3.1883 7.1072-7.10731 7.1072z"/><path d="m12.8571 24.194c-.4998 0-.905.4052-.905.905 0 1.6734-1.3615 3.0349-3.03491 3.0349-.49985 0-.905.4051-.905.905 0 .4998.40515.905.905.905 2.67151 0 4.84491-2.1734 4.84491-4.8448 0-.4999-.4051-.9051-.905-.9051z"/></g></g></svg>