<svg fill="none" height="40" viewBox="0 0 40 40" width="40" xmlns="http://www.w3.org/2000/svg"><g fill="#000"><path d="m35.625 16.425h-1.875v-.125c-.0013-.8349-.334-1.6352-.925-2.225l-9.4-9.4c-.5898-.59103-1.3901-.92373-2.225-.925h-11.825c-.8288 0-1.62366.32924-2.20971.91529s-.91529 1.38091-.91529 2.20971v9.55h-1.875c-.4158.0032-.82684.0888-1.20941.2517-.38258.1629-.72912.3999-1.01963.6974-.29052.2975-.51926.6495-.67303 1.0359-.15378.3863-.22955.7992-.22293 1.215v9.6c-.01677.422.05148.843.20069 1.2381.1492.395.37633.756.66786 1.0616.29153.3055.64152.5493 1.02915.7168.38764.1676.80501.2555 1.2273.2585h1.875v.7c.01958.8157.35745 1.5915.94139 2.1614s1.36764.8888 2.18361.8886h21.25c.8288 0 1.6237-.3292 2.2097-.9153.5861-.586.9153-1.3809.9153-2.2097v-.625h1.875c.4158-.0032.8268-.0888 1.2094-.2517s.7291-.3999 1.0196-.6974.5193-.6495.6731-1.0359c.1537-.3863.2295-.7992.2229-1.215v-9.675c.0066-.4158-.0692-.8287-.2229-1.215-.1538-.3864-.3826-.7384-.6731-1.0359s-.637-.5345-1.0196-.6974-.7936-.2485-1.2094-.2517zm-26.25-9.55h11.825l9.425 9.425v1.725h-21.25zm21.25 26.25h-21.25v-2.3h21.25zm5-3.9h-1.875v-1.6h-27.5v1.6h-1.85v-9.6h1.85v1.6h27.5v-1.675h1.85z"/><path d="m32.2 25.9c.8698 0 1.575-.6604 1.575-1.475s-.7052-1.475-1.575-1.475-1.575.6604-1.575 1.475.7052 1.475 1.575 1.475z"/></g></svg>