<svg fill="none" height="40" viewBox="0 0 40 40" width="40" xmlns="http://www.w3.org/2000/svg" xmlns:xlink="http://www.w3.org/1999/xlink"><clipPath id="a"><path d="m0 0h40v40h-40z"/></clipPath><g clip-path="url(#a)"><path d="m9.14718 26.6184h-1.98878c-.61243 0-1.11291-.4939-1.11291-1.1129v-5.4396c0-.6125.49386-1.1129 1.11291-1.1129h25.6964c.6125 0 1.113.4938 1.113 1.1129v5.4462c0 .6124-.494 1.1129-1.113 1.1129h-1.9887v2.4103h6.9212v-15.6536c0-.5927-.4938-1.0734-1.1129-1.0734h-33.33556c-.61243 0-1.11291.4807-1.11291 1.0734v15.647h6.92125z" fill="#ffc10d"/><path d="m31.7352 24.399v-3.2269h-23.47051v3.2269h.88249v-.5795c0-.6125.49386-1.1129 1.11292-1.1129h19.4797c.6124 0 1.1129.4938 1.1129 1.1129v.5795z" fill="#fff"/><path d="m28.6269 24.9259h-17.2604v12.8482h17.2604z" fill="#56ace0"/><path d="m32.7429 7.47449h-1.8901v2.60781h1.8901z" fill="#fff"/><path d="m9.14718 7.47449h-1.89007v2.60781h1.89007z" fill="#fff"/><path d="m28.6269 2.22595h-17.2604v7.85645h17.2604z" fill="#56ace0"/><path d="m36.6612 10.0823h-1.6925v-3.71419c0-.61244-.4938-1.11292-1.1129-1.11292h-2.9897v-4.14228c-.0001-.61243-.494-1.11291-1.1131-1.11291h-19.4994c-.61246 0-1.11294.493859-1.11294 1.11291v4.14228h-2.99646c-.61243 0-1.11291.49386-1.11291 1.11292v3.71419h-1.69245c-1.8373 0-3.33221769 1.4817-3.33221769 3.2994v16.7599c0 .6124.49385869 1.1129 1.11291769 1.1129h8.02764v7.6325c0 .6124.49386 1.1129 1.11292 1.1129h19.4797c.6124 0 1.1129-.4939 1.1129-1.1129v-7.6391h8.0277c.6124 0 1.1129-.4939 1.1129-1.113v-16.7532c.0001-1.8177-1.4948-3.2994-3.3321-3.2994zm-34.43527 3.2994c0-.5927.49386-1.0734 1.11291-1.0734h33.32236c.6124 0 1.1129.4807 1.1129 1.0734v15.647h-6.9279v-2.4104h1.9954c.6124 0 1.1129-.4938 1.1129-1.1129v-5.4395c0-.6125-.494-1.113-1.1129-1.113h-25.6832c-.61243 0-1.11291.4939-1.11291 1.113v5.4462c0 .6124.49386 1.1129 1.11291 1.1129h1.98878v2.4103h-6.92125zm9.14057-11.15577h17.2604v7.85637h-17.2604zm19.4863 7.85637v-2.6078h1.8901v2.6078zm-23.59569-2.6078h1.89007v2.6078h-1.89007zm4.10939 17.4514h17.2604v12.8482h-17.2604zm18.3799-2.2193h-19.4928c-.61246 0-1.11294.4939-1.11294 1.1129v.5795h-.88248v-3.2268h23.47052v3.2268h-.8825v-.5795c.0066-.619-.4873-1.1129-1.0998-1.1129z" fill="#194f82"/><path d="m23.3519 29.6411c0-.7244-.5926-1.3237-1.3236-1.3237-.4479 0-.8562.2173-1.0998.5993-.4412.6717-1.4159.6717-1.8571 0-.2437-.3754-.6586-.5993-1.0998-.5993-.7243 0-1.3236.5927-1.3236 1.3237 0 .8561 1.62 2.8119 3.3453 4.3661 1.7321-1.5805 3.3586-3.5364 3.3586-4.3661z" fill="#fff"/><g fill="#194f82"><path d="m22.0283 26.0981c-.7376 0-1.4488.2306-2.0284.6389-.5795-.4083-1.2907-.6389-2.0283-.6389-1.9492 0-3.5429 1.5872-3.5429 3.543 0 2.5421 4.0566 6.0323 4.8666 6.6974.4149.3358 1.0142.3358 1.4225-.0066 1.1393-.9615 4.8601-4.274 4.8601-6.6974-.0067-1.9427-1.5938-3.5364-3.5496-3.5364zm-5.3803 3.543c0-.7244.5926-1.3236 1.3236-1.3236.4479 0 .8561.2172 1.0998.5992.4412.6718 1.4159.6718 1.8571 0 .2437-.3753.6586-.5992 1.0998-.5992.7243 0 1.3236.5926 1.3236 1.3236 0 .8298-1.6266 2.7856-3.3586 4.3662-1.7253-1.5542-3.3453-3.5035-3.3453-4.3662z"/><path d="m32.8482 14.1982h-1.3368c-.6124 0-1.1129.4939-1.1129 1.113 0 .6124.4939 1.1129 1.1129 1.1129h1.3368c.6125 0 1.1129-.4939 1.1129-1.1129-.0066-.6191-.5004-1.113-1.1129-1.113z"/></g></g></svg>