<svg fill="none" height="40" viewBox="0 0 40 40" width="40" xmlns="http://www.w3.org/2000/svg" xmlns:xlink="http://www.w3.org/1999/xlink"><clipPath id="a"><path d="m0 0h40v40h-40z"/></clipPath><g clip-path="url(#a)"><path d="m38.9895 14.9532h-38.048719v15.6098h38.048719z" fill="#61acd2"/><path d="m33.1356 9.09955h-26.34146v5.85365h26.34146z" fill="#f4a026"/><path d="m28.878 2h-16.6828v12.9756h16.6828z" fill="#efefef"/><path d="m28.878 20.8293h-16.6828v17.1707h16.6828z" fill="#efefef"/><path d="m4.8432 14.9532h-3.902419v15.6098h3.902419z" fill="#efefef"/><g fill="#000"><path d="m34.0976 21.1385c.5388 0 .9756-.4368.9756-.9756s-.4368-.9756-.9756-.9756-.9757.4368-.9757.9756.4369.9756.9757.9756z"/><path d="m34.0976 26.1142c.5388 0 .9756-.4368.9756-.9757 0-.5388-.4368-.9756-.9756-.9756s-.9757.4368-.9757.9756c0 .5389.4369.9757.9757.9757z"/><path d="m16.3902 34h8.2927c.5388 0 .9756-.4369.9756-.9756 0-.5388-.4368-.9756-.9756-.9756h-8.2927c-.5388 0-.9756.4368-.9756.9756 0 .5387.4368.9756.9756.9756z"/><path d="m16.3902 30.0976h8.2927c.5388 0 .9756-.4369.9756-.9756 0-.5388-.4368-.9756-.9756-.9756h-8.2927c-.5388 0-.9756.4368-.9756.9756 0 .5387.4368.9756.9756.9756z"/><path d="m16.3902 26.1951h8.2927c.5388 0 .9756-.4368.9756-.9756 0-.5387-.4368-.9756-.9756-.9756h-8.2927c-.5388 0-.9756.4369-.9756.9756 0 .5388.4368.9756.9756.9756z"/><path d="m38.9895 14h-4.8432v-4.90029c0-.53875-.4716-.95336-1.0104-.95336h-3.2823v-6.19508c0-.53875-.4368-.92679-.9756-.92679h-16.6828c-.5389 0-.9757.38812-.9757.92679v6.19516h-4.42505c-.53882 0-.94078.41461-.94078.95336v4.90021h-4.912889c-.253594 0-.458672.0791-.623906.2439-.204453.1789-.316875.4166-.316875.7095v15.6097c0 .5388.401953.9979.940781.9979h10.278719v6.3903c0 .5387.4368 1.0243.9757 1.0243h16.6828c.5389 0 .9757-.4856.9757-1.0243v-6.3903h9.1359c.5388 0 1.0105-.4591 1.0105-.9979v-15.6097c-.0001-.5388-.4717-.9534-1.0106-.9534zm-6.7943-3.9024v3.9024h-2.3415v-3.9024zm-19.0245-7.12195h14.7317v11.02435h-14.7317zm-5.36586 7.12195h3.41466v3.9024h-3.41466zm-3.90242 19.5122h-1.95117v-13.6585h1.95125zm23.99998 7.4146h-14.7317v-15.2195h14.7317zm10.1463-7.4146h-8.195v-8.8293c0-.5388-.4368-.9268-.9757-.9268h-16.6828c-.5389 0-.9757.3881-.9757.9268v8.8293h-5.36583v-13.6585h32.19513v13.6585z"/></g></g></svg>