<svg fill="none" height="40" viewBox="0 0 40 40" width="40" xmlns="http://www.w3.org/2000/svg" xmlns:xlink="http://www.w3.org/1999/xlink"><clipPath id="a"><path d="m0 0h40v40h-40z"/></clipPath><g clip-path="url(#a)"><g fill="#656d78"><path d="m34.1662 25c-.3492 0-.6739-.2209-.7897-.57-.1466-.4371.0902-.9095.526-1.0547l5-1.6663c.437-.1452.9094.0904 1.0547.5273.1452.4358-.0904.9082-.5274 1.0535l-5 1.6662c-.0866.0294-.1757.044-.2636.044z"/><path d="m34.1662 30.8325c-.3492 0-.6739-.2209-.7897-.57-.1466-.4357.0902-.9082.526-1.0535l5-1.6662c.437-.1464.9094.0903 1.0547.5261.1452.437-.0904.9095-.5274 1.0547l-5 1.6663c-.0866.0293-.1757.0426-.2636.0426z"/><path d="m34.1662 19.1663c-.3492 0-.6739-.221-.7897-.57-.1466-.437.0902-.9082.526-1.0535l5-1.6674c.437-.1453.9094.0903 1.0547.5273.1452.437-.0904.9082-.5274 1.0535l-5 1.6675c-.0866.0292-.1757.0426-.2636.0426z"/></g><path d="m28.3337 37.2217v1.9446c0 .4602.3724.8325.8325.8325h3.3337c.4602 0 .8338-.3724.8338-.8325v-1.9446z" fill="#434a54"/><path d="m3.33372 39.1662c0 .4603.3729.8338.83316.8338h3.33311c.46018 0 .83371-.3735.83371-.8338v-1.9446h-4.99998z" fill="#434a54"/><path d="m34.9995 8.33252h-33.33263v29.99978h33.33263z" fill="#e6e9ed"/><path d="m8.3337.00006104c-4.60269 0-8.3337 3.73045896-8.3337 8.33244896v3.33369h36.6663v-11.66613896z" fill="#656d78"/><path d="m34.9995 23.3328h-33.33263v1.6675h33.33263z" fill="#ccd1d9"/><path d="m.694534 5.00001h35.971666v-1.66749h-34.99933c-.3858.51277-.712354 1.07181-.972336 1.66749z" fill="#434a54"/><path d="m33.3337 8.33252c0 .46026-.3736.83378-.8338.83378s-.8338-.37352-.8338-.83378c0-.46019.3736-.83246.8338-.83246s.8338.37227.8338.83246z" fill="#ffce54"/><path d="m30 8.33252c0 .46026-.3736.83378-.8338.83378s-.8325-.37352-.8325-.83378c0-.46019.3724-.83246.8325-.83246s.8338.37227.8338.83246z" fill="#ed5564"/><path d="m26.6663 8.33252c0 .46026-.3724.83378-.8326.83378s-.8338-.37352-.8338-.83378c0-.46019.3736-.83246.8338-.83246s.8326.37227.8326.83246z" fill="#a0d468"/><path d="m15.7788 13.3326h5c.4602 0 .8325-.3724.8325-.8325v-.8338h-6.6657v.8338c0 .4601.373.8325.8332.8325z" fill="#434a54"/><path d="m20.8337 25h-5-.8337v.8325c0 .4602.3735.8337.8337.8337h5c.4602 0 .8324-.3735.8324-.8337v-.8325z" fill="#434a54"/></g></svg>