<svg fill="none" height="40" viewBox="0 0 40 40" width="40" xmlns="http://www.w3.org/2000/svg" xmlns:xlink="http://www.w3.org/1999/xlink"><clipPath id="a"><path d="m0 0h40v40h-40z"/></clipPath><g clip-path="url(#a)"><path d="m5.92803 3.29547h28.14397c1.6319 0 3.1123.66604 4.1887 1.74243 1.0733 1.07323 1.7425 2.55681 1.7425 4.18876v24.08144c0 .2494-.1011.4735-.2652.6376-.1641.1642-.3883.2652-.6376.2652h-2.3485v2.2064c0 .161-.1294.2904-.2904.2904h-6.2121c-.161 0-.2904-.1294-.2904-.2904v-2.2033h-19.2709v2.2065c0 .161-.1294.2904-.2904.2904h-6.20894c-.16098 0-.2904-.1294-.2904-.2904v-2.2033h-2.995582c-.246212 0-.473485-.101-.637626-.2652-.164142-.1704-.265152-.3977-.265152-.6439v-24.0846c0-1.63194.666035-3.11237 1.74242-4.18876 1.07324-1.07323 2.55682-1.73927 4.18561-1.73927zm14.24877 17.02653h3.6079c.7102 0 1.2847.0978 1.7235.2904.4388.1925.7986.4703 1.0859.8302.2841.363.4924.7796.6187 1.2594.1294.4798.1925.9849.1925 1.5215 0 .8396-.0947 1.4899-.2872 1.9539-.1894.464-.4546.8491-.7955 1.1648-.3409.3125-.7039.5208-1.0953.625-.5335.142-1.0164.2146-1.4457.2146h-3.6048zm2.4274 1.7771v4.293h.5966c.5082 0 .8712-.0569 1.0858-.1673.2147-.1137.382-.3094.5051-.5903s.183-.7355.183-1.3637c0-.8333-.1357-1.4015-.4071-1.7077-.2715-.3061-.7229-.4608-1.3542-.4608h-.6092zm-7.8315.4956-2.0644-.3693c.1705-.6566.4988-1.1585.988-1.512.4861-.3504 1.1774-.524 2.0676-.524 1.0259 0 1.7645.1894 2.2222.5713.4546.382.685.8649.685 1.4426 0 .3378-.0947.6471-.2778.9217-.1862.2746-.464.5145-.8365.7229.303.0757.5366.1641.6945.262.262.161.464.3724.606.6344.1452.262.2178.5777.2178.9407 0 .4577-.1199.8965-.3598 1.3163s-.584.7418-1.0322.969c-.4514.2273-1.0417.341-1.774.341-.7134 0-1.2784-.0853-1.6888-.2526-.4135-.1673-.7512-.4135-1.0195-.7386-.2652-.3251-.4704-.7323-.6124-1.2216l2.1843-.2904c.0853.4419.2178.7481.3978.9186.1799.1704.4072.2556.6881.2556.2904 0 .5334-.1073.7292-.3219.1925-.2147.2904-.4988.2904-.8586 0-.363-.0947-.6471-.281-.846-.1862-.1988-.4419-.2998-.7607-.2998-.1705 0-.4072.041-.7039.1294l.1136-1.5594c.12.019.2115.0284.2809.0284.281 0 .5177-.0915.7071-.2714.1894-.18.2841-.3946.2841-.644 0-.2399-.0726-.4293-.2115-.5713-.142-.1421-.3377-.2147-.5839-.2147-.2557 0-.4641.0758-.625.2336-.161.1515-.2684.4199-.3252.8081zm4.1478-5.1831h2.3737l-.4577 1.6983h-1.4868zm-13.36494-5.9532h9.98424l-.7923-1.3416h.7576 9.9494l-.7702 1.3416h9.7601c-.0157-.9218-.3977-1.75826-1.0101-2.37063-.6218-.62184-1.4835-1.0101-2.4274-1.0101h-22.017c-.94381 0-1.8024.38826-2.4274 1.0101-.60922.61237-.99116 1.44883-1.00694 2.37063zm28.88884 2.9861h-11.4741l-1.4046 2.4431h-2.8189l-1.4425-2.4431h-11.74874v14.981h28.88884zm-10.4829-3.4596h-7.6957l2.9735 5.0315h1.8276zm-14.9716-4.1162h22.017c1.2785 0 2.4401.52399 3.2829 1.36364.8428.8428 1.3636 2.00446 1.3636 3.28286v18.2891c0 .2304-.0947.4388-.243.5871-.1516.1515-.3599.2462-.5872.2462h-29.64959c-.22727 0-.43876-.0947-.58712-.243-.15152-.1515-.24306-.3599-.24306-.5871v-18.2923c0-1.2784.52399-2.44006 1.36364-3.28286.8428-.8428 2.00442-1.36364 3.28283-1.36364zm25.0821-2.36111h-28.14397c-1.29735 0-2.47475.53031-3.33018 1.38573-.85543.85543-1.38573 2.03283-1.38573 3.33018v23.7753h37.57578v-23.7753c0-1.29735-.5303-2.47475-1.3858-3.33018-.8554-.85542-2.0328-1.38573-3.3301-1.38573z" fill="#7a36bf" stroke="#7a36bf"/></g></svg>