<svg fill="none" height="38" viewBox="0 0 38 38" width="38" xmlns="http://www.w3.org/2000/svg" xmlns:xlink="http://www.w3.org/1999/xlink"><clipPath id="a"><path d="m0 0h38v38h-38z"/></clipPath><g clip-path="url(#a)" fill="#eb001b"><path d="m19 6.33331c-2.975 0-5.8831.88218-8.3567 2.53498-2.4736 1.65281-4.40153 4.00201-5.53999 6.75051-1.13847 2.7485-1.43635 5.7729-.85596 8.6907.58038 2.9178 2.01296 5.5979 4.11658 7.7015 2.10357 2.1037 4.78377 3.5362 7.70157 4.1166s5.9422.2825 8.6907-.8559c2.7485-1.1385 5.0977-3.0664 6.7505-5.54s2.535-5.3818 2.535-8.3567c0-3.9893-1.5848-7.8152-4.4056-10.6361-2.8209-2.82084-6.6468-4.40559-10.6361-4.40559zm6.65 11.39999-7.9167 7.9167c-.1409.1536-.3122.2762-.503.36-.1907.0839-.3969.1272-.6053.1272s-.4146-.0433-.6054-.1272c-.1908-.0838-.362-.2064-.5029-.36l-3.0875-3.0875c-.2858-.2686-.4725-.6258-.5299-1.0137-.0575-.3879.0176-.7839.2132-1.1238.1364-.1922.3139-.3515.5196-.4664.2058-.1148.4346-.1823.6698-.1974.2351-.0152.4707.0223.6895.1097.2188.0875.4153.2227.5753.3957l2.0583 2.0584 6.8083-6.8084c.3049-.2286.6821-.3397 1.0623-.3126.3801.027.7378.1902 1.0073.4597s.4328.6272.4598 1.0074c.027.3801-.084.7573-.3127 1.0622z"/><path d="m4.75 9.5001c-.24474-.00579-.48518-.06557-.70414-.17505-.21897-.10948-.41105-.26597-.56253-.45828-.12475-.16634-.21553-.35563-.26713-.55705s-.06303-.41103-.03362-.61687c.05938-.4157.28148-.79079.61742-1.04275l6.3333-4.75c.1664-.12475.3557-.21552.5571-.26713.2014-.0516.411-.06303.6168-.03362.2059.0294.4039.09906.5828.205s.3352.24608.46.41242.2155.35562.2671.55705c.0516.20142.0631.41103.0337.61687-.0295.20583-.0991.40386-.2051.58278-.1059.17891-.246.33521-.4124.45996l-6.3333 4.75c-.27121.21097-.60646.32272-.95.31667z"/><path d="m33.25 9.49999c-.3435.00604-.6788-.10571-.95-.31667l-6.3333-4.75c-.1664-.12476-.3065-.28105-.4125-.45997-.1059-.17891-.1756-.37694-.205-.58278s-.0179-.41545.0337-.61687.1423-.39071.2671-.55705c.252-.33594.627-.55803 1.0427-.61742.4157-.05938.838.0488 1.174.30076l6.3333 4.75c.3359.25195.558.62704.6174 1.04275.0594.4157-.0488.83797-.3007 1.17391-.1515.19232-.3436.34881-.5626.45829-.2189.10948-.4594.16925-.7041.17505z"/></g></svg>