<svg fill="none" height="38" viewBox="0 0 38 38" width="38" xmlns="http://www.w3.org/2000/svg" xmlns:xlink="http://www.w3.org/1999/xlink"><clipPath id="a"><path d="m0 0h38v38h-38z"/></clipPath><g clip-path="url(#a)"><path d="m10.9167 23.7939c-1.48439 0-1.68152-.6935-1.68152-.6935l-5.78906 11.3763 4.64194-.5202 2.56734 3.8594s5.3438-11.1542 5.3438-11.0794c-2.7669-.0665-1.6685-2.8678-5.0825-2.9426zm13.0494 1.2208c.7208-1.2113 1.786-1.8252 3.1956-1.8442 1.4095-.019 2.122-.7327 2.141-2.1423.019-1.4083.633-2.4735 1.8442-3.1931 1.2113-.7197 1.4725-1.6958.7838-2.9249-.6888-1.229-.6888-2.4593 0-3.6883.6887-1.2291.4263-2.20404-.7838-2.92485-1.21-.72081-1.8252-1.78481-1.8442-3.19437-.019-1.40838-.7326-2.12207-2.141-2.14107-1.4108-.019-2.4748-.63293-3.1956-1.84418-.7184-1.2112546-1.6957-1.472505-2.9248-.783755-1.2291.688755-2.4581.688755-3.6872 0-1.229-.68875-2.204-.4263122-2.9248.783755-.7208 1.21125-1.7848 1.82518-3.1944 1.84418-1.40953.019-2.12203.73388-2.14103 2.14225-.019 1.40957-.63294 2.47357-1.84419 3.19438s-1.4725 1.69575-.78375 2.92486c.68875 1.229.68875 2.4593 0 3.6883-.68875 1.2291-.42631 2.204.78375 2.9248 1.21125.7209 1.82519 1.786 1.84419 3.1932.019 1.4096.73269 2.1233 2.14103 2.1423 1.4084.019 2.4736.6329 3.1944 1.8442.7196 1.2112 1.6958 1.4713 2.9248.7837 1.2291-.6876 2.4581-.6876 3.6872 0s2.2052.4263 2.9248-.7849zm-3.1635-6.01h-2.1149v-7.9871c-.7731.7232-1.6863 1.2576-2.7372 1.6043v-1.9202c.5522-.1805 1.1531-.5225 1.8014-1.02715.6484-.50469 1.0925-1.0925 1.3336-1.76462h1.7171zm7.8874 4.541c-4.2299.4453-3.3701 1.4915-4.3344 2.3073-1.1139 1.1875-2.502.9584-2.502.9584l6.5312 11.2278 1.6031-4.1563 4.5672.5938z" fill="#eb001b"/></g></svg>