<svg fill="none" height="38" viewBox="0 0 38 38" width="38" xmlns="http://www.w3.org/2000/svg"><path clip-rule="evenodd" d="m33.25 26.9705v-19.59853c0-.703-.3111-1.36921-.8503-1.82046-.532-.44531-1.2314-.63531-1.9154-.52131-2.9687.41325-6.4374-.4251-9.4097-2.52579-1.2386-.89656-2.9142-.89301-4.1492.0083-2.958 2.10544-6.4053 2.98063-9.36815 2.56026-.703-.1235-1.40244.06056-1.93562.50231-.54032.44769-.85382 1.11387-.85382 1.81568-.01781 4.04704-.01781 15.43874-.01781 19.57954 0 1.3977.817 2.6647 2.08882 3.243 2.65643 1.2077 8.38848 3.8131 10.68748 4.8581.9358.4263 2.0116.4263 2.9474 0 2.299-1.045 8.031-3.6504 10.6875-4.8581 1.2718-.5783 2.0888-1.8453 2.0888-3.243zm-2.3762-19.59853.0012.0012v19.59733c0 .4655-.2719.8882-.6959 1.0818-2.6564 1.2065-8.3897 3.8131-10.6875 4.8569-.3123.1425-.6709.1425-.9832 0-2.2978-1.0438-8.0311-3.6504-10.68753-4.8569-.42393-.1936-.69587-.6163-.69587-1.0818 0-4.1337 0-15.4945.01781-19.55816l.00356.0012c3.53873.51656 7.64873-.46788 11.16013-2.96875l.0071-.00475c.4133-.304.9655-.30521 1.3728-.00833l.0071.00474c3.5186 2.48782 7.6297 3.43663 11.1387 2.94263zm-17.4634 11.28003 3.7371 3.7371c.4631.4631 1.2148.4631 1.6791 0l6.9992-6.9991c.4631-.4632.4631-1.216 0-1.6792-.4644-.4643-1.2161-.4643-1.6792 0l-6.1595 6.1584-2.8975-2.8963c-.4632-.4631-1.216-.4631-1.6792 0-.4631.4631-.4631 1.216 0 1.6791z" fill="#eb001b" fill-rule="evenodd"/></svg>