<svg height="186.73228" width="744.09448" xmlns="http://www.w3.org/2000/svg"><g transform="translate(-19.077056 70.654012)"><path d="m86.21875-298.21875-29.28125 29.1875h46.59375v46.4375l29.28125-29.1875v-46.4375zm17.3125 75.625v46.4375h-46.59375l29.28125 29.1875h46.59375v-46.4375zm0 0-46.59375-46.4375v92.875zm-46.59375 46.4375-46.59375-46.4375v46.4375zm-46.59375-46.4375 46.59375-46.4375h-46.59375z" fill="#e31a2f" transform="translate(26.442414 245.30588)"/><g fill="#231f20"><path d="m190.3299-28.874453h17.31207v103.195079h-17.31207z"/><path d="m229.6722 20.053929 33.18555-48.928382h-20.09175l-33.81955 48.955072 38.37919 54.240007h21.71325z"/><path d="m688.62515 74.320626h56.83728v-91.15865c0-6.653153-5.40085-12.036429-12.06968-12.036429h-54.70373v15.684448h49.44917v27.05376l-39.51304.001172c-6.68096 0-12.08185 5.388176-12.08185 12.040108v36.374259c0 6.65076 5.4131 12.041332 12.08185 12.041332zm5.24243-44.770026h34.27061v29.083129h-34.27061z"/><path d="m650.66051-28.874453c6.66883 0 12.08192 5.383276 12.08192 12.036429v33.903807c0 6.648258-5.41309 12.037654-12.08192 12.037654 0 0-4.88886 0-6.99796 0l25.1391 45.217189h-18.98238l-33.57566-60.456871h29.17454v-27.05376h-34.96555v87.510631h-17.32428v-103.195079z"/><path d="m516.06522-16.839249c0-6.651928 5.40089-12.035204 12.06963-12.035204h50.32699v15.684448h-45.07234v27.05376h43.53623v15.686845h-43.53623v29.083129h45.07234v15.686897h-50.32699c-6.66874 0-12.06963-5.390572-12.06963-12.041332z"/><path d="m441.37946-16.839249c0-6.651928 5.41305-12.035204 12.08184-12.035204h49.60762v15.684448h-44.35302v71.823734h44.35302v15.686897h-49.60762c-6.66879 0-12.08184-5.390572-12.08184-12.041332z"/><path d="m354.70927-16.838024c0-6.653153 5.40089-12.036429 12.06972-12.036429h47.44973c6.66883 0 12.06972 5.383276 12.06972 12.037654v79.118542c0 6.648311-5.40089 12.038883-12.08193 12.038883h-47.43752c-6.66883 0-12.06972-5.390572-12.06972-12.041332zm17.31211 75.471753h36.95278v-71.823734h-36.95278z"/><path d="m272.03801 18.883666v-47.758119h17.32427v44.116229h32.92957v-44.116229h17.32427v91.156196c0 6.648311-5.41309 12.038883-12.08188 12.038883l-51.3267.004847v-15.691744s44.26775.009746 46.08431.009746v-27.718476c-1.80436 0-38.18414 0-38.18414 0-6.66882 0-12.0697-5.390576-12.0697-12.041333"/></g></g></svg>