<svg enable-background="new 0 0 2444.9 372.5" viewBox="0 0 2444.9 372.5" xmlns="http://www.w3.org/2000/svg"><path d="m2339.3 366.1h105.6l-109-359.6h-150.1l-109 359.6h105.6l19.3-66.6h118.3zm-114.6-146.6 35.9-124.2h.6l35.9 124.2zm-1697.6 153c108.4 0 160.8-19.1 168.3-116.9 1.8-23.3 2.1-47.2 2.1-69.3s-.3-46-2.1-69.3c-7.4-97.9-59.8-117-168.3-117s-160.8 19.1-168.2 116.9c-1.8 23.3-2.2 47.2-2.2 69.3 0 22.2.4 46.1 2.2 69.3 7.4 97.9 59.8 117 168.2 117m-68.2-186.3c0-19.7.5-31.4.9-40.1 2.8-55.5 24.7-62 67.3-62s64.5 6.5 67.3 62c.4 8.7.9 20.3.9 40.1s-.5 31.5-.9 40.1c-2.7 55.5-24.6 62-67.3 62-42.6 0-64.5-6.5-67.3-62-.4-8.6-.9-20.3-.9-40.1zm-458.9-179.6v89.6h107.5v269.9h107.5v-269.8h107.5v-89.7zm1649.8 359.5v-359.6h-102v359.6zm-410.5-228.3v-131.3h-101.5v359.6h101.5v-138.7h117.9v138.7h101.4v-359.6h-101.4v131.3zm746.2 40.3c45.2-11.6 58.5-38.6 58.5-77.6 0-79-49.7-94.1-120.4-94.1h-183.2v359.6h192.3c88.5 0 118.3-38.1 118.3-96.8-.1-40.8-9.5-76.9-65.5-91.1m-143.8 40.3h70.4c28.4 0 34.4 12.5 34.4 32.7 0 20.3-11.1 32.8-34.4 32.8h-70.4zm0-129.7h70.4c18.4 0 29.7 8.7 29.7 29.7 0 18-11.2 29-29.7 29h-70.4zm-1085.1 159.4h96.7c.1 17.4 2.3 29.1 10.8 35.5 9.6 7.3 18.2 9.7 46.8 9.7 27.5 0 57.6 0 57.6-33.9 0-26.7-16.8-32.8-47.9-34.5-77.1-4.1-104.9-6.3-133.6-27.6-19.6-14.5-29.7-42.8-29.7-81.1 0-65.1 22.7-87.9 55.5-103.8 33.8-16.4 166.5-16.4 202.2 0 44.9 20.7 46.2 65.5 46.2 107h-96.5c-.2-21.2-5-27.2-8.8-31.1-10-8.9-24.3-10.8-44.9-10.8-24.9 0-53.8 1.1-53.8 31.4 0 23.1 10 32.8 36.2 34.5 36 2.3 107 4.6 132.3 19.5 35.5 21 44.7 49.4 44.7 95.7 0 67-24 86.6-57.3 101.3-38.5 17-167 17-208.8-1.3-46.7-20.4-47.7-61-47.7-110.5" fill="#f00"/></svg>