<svg fill="none" height="20" viewBox="0 0 20 20" width="20" xmlns="http://www.w3.org/2000/svg" xmlns:xlink="http://www.w3.org/1999/xlink"><clipPath id="a"><path d="m0 0h20v20h-20z"/></clipPath><g clip-path="url(#a)"><path d="m.30928 17.1134c.10309 1.3402 1.13402 2.4742 2.57732 2.5773 2.06185.2062 4.94845.3093 7.1134.3093 2.1649 0 5.0515-.1031 7.1134-.3093.7217 0 1.3402-.3093 1.7526-.8247.4124-.5155.7216-1.0309.8247-1.7526.2062-2.0619.3093-4.9485.3093-7.1134 0-2.16495-.2062-5.05155-.3093-7.1134-.1031-1.34021-1.134-2.47423-2.5773-2.57732-2.0619-.20619-4.9485-.30928-7.1134-.30928-2.16495 0-5.05155.20619-7.1134.30928-1.34021.10309-2.47423 1.13402-2.57732 2.57732-.20619 2.06186-.30928 4.94845-.30928 7.1134 0 2.165.10309 5.0515.30928 7.1134zm4.74227-7.0787 3.71135-4.67387c.1031-.20619.3093-.30928.6185-.30928.2062 0 .3093.10309.5155.20618.3093.30928.4124.72165.1031 1.03093l-2.47423 2.88664h6.59793c.4124 0 .8248.3092.8248.8247s-.3093.8247-.8248.8247h-6.49483l2.47423 2.8866c.3093.3093.2062.8248-.1031 1.031-.3093.3092-.8247.2062-1.0309-.1031z" fill="#384a70"/></g></svg>