<svg fill="none" height="20" viewBox="0 0 20 20" width="20" xmlns="http://www.w3.org/2000/svg" xmlns:xlink="http://www.w3.org/1999/xlink"><clipPath id="a"><path d="m0 0h20v20h-20z"/></clipPath><g clip-path="url(#a)"><path d="m19.6907 2.8866c-.1031-1.34021-1.134-2.47423-2.5773-2.57732-2.0619-.20619-4.9485-.30928-7.1134-.30928-2.16495 0-5.05155.10309-7.1134.30928-.72165 0-1.34021.30928-1.75258.82474s-.72165 1.03093-.82474 1.75258c-.20619 2.06185-.30928 4.94845-.30928 7.11336 0 2.16504.20619 5.05164.30928 7.11344.10309 1.3402 1.13402 2.4743 2.57732 2.5774 2.06185.2061 4.94845.3092 7.1134.3092 2.1649 0 5.0515-.2061 7.1134-.3092 1.3402-.1031 2.4742-1.1341 2.5773-2.5774.2062-2.0618.3093-4.9484.3093-7.11344 0-2.16491-.1031-5.05151-.3093-7.11336zm-4.7422 7.07876-3.7114 4.67384c-.1031.2062-.3093.3093-.6185.3093-.2062 0-.3093-.1031-.5155-.2062-.3093-.3093-.4124-.7216-.1031-1.0309l2.4742-2.8866h-6.59791c-.41237 0-.82474-.3093-.82474-.82484 0-.5154.30927-.8247.82474-.8247h6.49481l-2.4742-2.8866c-.3093-.30928-.2062-.82474.1031-1.03093.3093-.30928.8247-.20619 1.0309.10309z" fill="#384a70"/></g></svg>